<?xml version="1.0" encoding="utf-8"?>
<!-- Generator: Adobe Illustrator 15.1.0, SVG Export Plug-In . SVG Version: 6.00 Build 0)  -->
<!DOCTYPE svg PUBLIC "-//W3C//DTD SVG 1.1//EN" "http://www.w3.org/Graphics/SVG/1.1/DTD/svg11.dtd">
<svg version="1.1" xmlns="http://www.w3.org/2000/svg" xmlns:xlink="http://www.w3.org/1999/xlink" x="0px" y="0px"
	 width="850.39px" height="212.5px" viewBox="0 0 850.39 212.5" enable-background="new 0 0 850.39 212.5" xml:space="preserve">
<g id="Ebene_2">
	<rect x="-0.061" y="-0.111" width="850.394" height="212.599"/>
</g>
<g id="Ebene_1">
	<path fill="#010202" stroke="#FFFFFF" stroke-width="3" stroke-miterlimit="10" d="M919.764-232.413v-189.134
		c0,0,0.655-15.078,17.7-15.734h201.594c0,0,16.389-1.311,17.699,17.374v183.891c0,0,1.64,16.063-15.733,18.027H934.842
		C934.842-217.989,923.37-219.627,919.764-232.413z"/>
	<g enable-background="new    ">
		<path fill="#FFFFFF" d="M975.184-276.825c-1.854,0-3.521-0.404-5.002-1.215c-1.482-0.811-2.74-1.918-3.773-3.322
			c-1.033-1.406-1.828-3.059-2.385-4.959c-0.555-1.9-0.833-3.939-0.833-6.12c0-2.408,0.278-4.613,0.833-6.614
			c0.557-2.001,1.365-3.714,2.43-5.142c1.063-1.426,2.366-2.537,3.908-3.334c1.541-0.796,3.298-1.193,5.27-1.193
			c1.816,0,3.447,0.391,4.895,1.172c1.445,0.782,2.676,1.865,3.692,3.248c1.016,1.385,1.796,3.023,2.339,4.916
			c0.544,1.893,0.816,3.951,0.816,6.174c0,2.338-0.267,4.505-0.799,6.507c-0.531,2-1.314,3.732-2.348,5.193
			c-1.033,1.463-2.307,2.611-3.818,3.443C978.896-277.241,977.154-276.825,975.184-276.825z M975.381-306.122
			c-1.555,0-2.932,0.354-4.133,1.065c-1.201,0.709-2.214,1.67-3.039,2.882c-0.824,1.212-1.448,2.632-1.873,4.259
			c-0.424,1.629-0.643,3.359-0.654,5.195c-0.012,1.75,0.177,3.423,0.564,5.022c0.389,1.6,0.975,3.012,1.758,4.238
			c0.782,1.225,1.771,2.205,2.967,2.936c1.194,0.732,2.593,1.098,4.194,1.098c1.601,0,3.009-0.334,4.222-1
			c1.213-0.668,2.226-1.592,3.039-2.775c0.813-1.184,1.424-2.592,1.837-4.227c0.412-1.635,0.618-3.421,0.618-5.356
			c0-1.807-0.182-3.521-0.547-5.141c-0.364-1.621-0.932-3.037-1.703-4.249c-0.771-1.212-1.754-2.173-2.948-2.882
			C978.487-305.767,977.053-306.122,975.381-306.122z"/>
		<path fill="#FFFFFF" d="M994.901-305.583v11.615h9.394v2.604h-9.394v14.003h-2.384v-30.847h12.53v2.625H994.901z"/>
		<path fill="#FFFFFF" d="M1012.397-305.583v11.615h9.394v2.604h-9.394v14.003h-2.384v-30.847h12.53v2.625H1012.397z"/>
		<path fill="#FFFFFF" d="M1029.893-277.362h-2.383v-30.847h2.383V-277.362z"/>
		<path fill="#FFFFFF" d="M1053.86-278.502c-1.983,1.119-4.248,1.678-6.794,1.678c-1.816,0-3.466-0.383-4.947-1.15
			c-1.482-0.766-2.746-1.832-3.791-3.193c-1.047-1.363-1.854-2.982-2.42-4.861c-0.568-1.879-0.852-3.929-0.852-6.152
			c0-2.337,0.301-4.514,0.904-6.528c0.604-2.016,1.467-3.765,2.591-5.249c1.123-1.484,2.483-2.649,4.078-3.495
			c1.595-0.847,3.385-1.27,5.368-1.27c2.188,0,4.142,0.401,5.862,1.205v3.054c-1.841-1.104-3.806-1.656-5.897-1.656
			c-1.661,0-3.137,0.345-4.428,1.032c-1.291,0.689-2.379,1.646-3.263,2.872s-1.56,2.675-2.025,4.345
			c-0.466,1.672-0.699,3.496-0.699,5.475c0,1.779,0.209,3.452,0.628,5.022c0.418,1.57,1.036,2.943,1.855,4.119
			c0.818,1.176,1.837,2.109,3.056,2.797c1.22,0.689,2.636,1.033,4.249,1.033c2.473,0,4.648-0.625,6.524-1.871V-278.502z"/>
		<path fill="#FFFFFF" d="M1061.73-277.362h-2.385v-30.847h2.385V-277.362z"/>
		<path fill="#FFFFFF" d="M1086.02-277.362l-14.27-24.759c-0.179-0.314-0.355-0.638-0.528-0.968
			c-0.173-0.329-0.313-0.652-0.421-0.968h-0.09c0.023,0.258,0.045,0.617,0.063,1.075c0.018,0.46,0.027,1.032,0.027,1.722v23.897
			h-2.385v-30.847h2.635l14.037,24.458c0.215,0.387,0.408,0.75,0.582,1.086c0.174,0.338,0.332,0.65,0.475,0.936h0.09
			c-0.047-0.473-0.084-1.004-0.107-1.592s-0.035-1.24-0.035-1.957v-22.931h2.402v30.847H1086.02z"/>
		<path fill="#FFFFFF" d="M1111.814-277.362l-2.832-9.121h-11.023l-2.762,9.121h-2.652l9.787-30.847h2.402l9.734,30.847H1111.814z
			 M1103.981-302.808c-0.083-0.273-0.171-0.588-0.26-0.947c-0.09-0.358-0.165-0.768-0.224-1.227h-0.072
			c-0.072,0.459-0.152,0.868-0.242,1.227c-0.09,0.359-0.176,0.674-0.26,0.947l-4.158,13.724h9.41L1103.981-302.808z"/>
	</g>
	<g enable-background="new    ">
		<path fill="#FFFFFF" d="M954.048-233.305l-2.832-9.121h-11.024l-2.761,9.121h-2.653l9.788-30.848h2.401l9.734,30.848H954.048z
			 M946.215-258.754c-0.084-0.271-0.171-0.588-0.26-0.945c-0.09-0.359-0.165-0.768-0.225-1.227h-0.072
			c-0.071,0.459-0.152,0.867-0.242,1.227c-0.089,0.357-0.176,0.674-0.26,0.945l-4.158,13.725h9.411L946.215-258.754z"/>
		<path fill="#FFFFFF" d="M960.752-233.305v-30.848h2.385v28.244h10.325v2.604H960.752z"/>
		<path fill="#FFFFFF" d="M980.184-233.305h-2.383v-30.848h2.383V-233.305z"/>
		<path fill="#FFFFFF" d="M1009.619-233.305v-21.297c0-1.09,0.072-2.846,0.215-5.27h-0.072c-0.167,0.645-0.319,1.203-0.457,1.678
			c-0.137,0.473-0.266,0.859-0.385,1.16l-8.963,23.729h-1.021l-8.981-23.578c-0.263-0.717-0.532-1.727-0.807-3.031h-0.071
			c0.047,0.658,0.08,1.412,0.098,2.258c0.019,0.846,0.027,1.785,0.027,2.818v21.533h-2.33v-30.848h2.814l8.729,23.189
			c0.18,0.486,0.355,0.986,0.528,1.494c0.174,0.51,0.332,1.051,0.476,1.625h0.108c0.166-0.574,0.318-1.098,0.457-1.57
			c0.137-0.475,0.307-0.982,0.51-1.527l8.803-23.211h2.67v30.848H1009.619z"/>
		<path fill="#FFFFFF" d="M1018.636-233.305v-30.848h12.53v2.625h-10.146v11.314h9.394v2.58h-9.394v11.725h10.72v2.604H1018.636z"/>
		<path fill="#FFFFFF" d="M1054.703-233.305l-14.27-24.76c-0.18-0.316-0.355-0.639-0.529-0.969c-0.173-0.33-0.313-0.652-0.421-0.969
			h-0.089c0.023,0.26,0.045,0.617,0.063,1.076s0.026,1.033,0.026,1.721v23.9h-2.384v-30.848h2.635l14.036,24.459
			c0.216,0.387,0.409,0.748,0.583,1.086c0.173,0.336,0.332,0.648,0.475,0.936h0.09c-0.048-0.473-0.084-1.004-0.107-1.592
			c-0.024-0.588-0.036-1.24-0.036-1.957v-22.932h2.402v30.848H1054.703z"/>
		<path fill="#FFFFFF" d="M1071.195-261.528v28.223h-2.385v-28.223h-7.403v-2.625h17.209v2.625H1071.195z"/>
		<path fill="#FFFFFF" d="M1096.739-233.305l-2.832-9.121h-11.024l-2.761,9.121h-2.653l9.788-30.848h2.401l9.734,30.848H1096.739z
			 M1088.906-258.754c-0.084-0.271-0.171-0.588-0.26-0.945c-0.09-0.359-0.165-0.768-0.225-1.227h-0.072
			c-0.071,0.459-0.152,0.867-0.242,1.227c-0.089,0.357-0.176,0.674-0.26,0.945l-4.158,13.725h9.411L1088.906-258.754z"/>
		<path fill="#FFFFFF" d="M1117.443-233.305l-3.871-8.842c-0.383-0.875-0.754-1.605-1.111-2.193
			c-0.359-0.588-0.729-1.059-1.111-1.41c-0.383-0.352-0.793-0.602-1.229-0.752c-0.437-0.15-0.924-0.227-1.461-0.227h-2.832v13.424
			h-2.385v-30.848h7.404c0.967,0,1.902,0.172,2.805,0.516s1.706,0.854,2.411,1.527s1.27,1.521,1.694,2.539
			c0.424,1.018,0.637,2.201,0.637,3.549c0,1.09-0.139,2.094-0.413,3.012s-0.666,1.732-1.174,2.441
			c-0.509,0.709-1.124,1.313-1.847,1.807c-0.723,0.496-1.539,0.865-2.447,1.107v0.086c0.348,0.174,0.664,0.396,0.951,0.668
			c0.286,0.271,0.564,0.602,0.833,0.99c0.269,0.387,0.534,0.83,0.798,1.332c0.263,0.502,0.537,1.076,0.824,1.721l4.32,9.553
			H1117.443z M1105.828-261.528v12.195h4.266c0.861,0,1.649-0.15,2.367-0.451c0.717-0.301,1.328-0.73,1.837-1.291
			c0.508-0.559,0.902-1.232,1.183-2.021c0.281-0.789,0.422-1.678,0.422-2.668c0-1.793-0.481-3.201-1.443-4.227
			s-2.352-1.537-4.168-1.537H1105.828z"/>
		<path fill="#FFFFFF" d="M1124.615-233.305v-30.848h12.529v2.625h-10.146v11.314h9.395v2.58h-9.395v11.725h10.721v2.604H1124.615z"
			/>
	</g>
	<g>
		<path fill="#FFFFFF" stroke="#FFFFFF" stroke-width="2" stroke-miterlimit="10" d="M944.381-345.898l-1.272,1.315
			c2.087,0.817,4.612,1.758,7.527,2.774l2.495-2.578C950.202-344.854,947.283-345.357,944.381-345.898z"/>
		<path fill="#FFFFFF" stroke="#FFFFFF" stroke-width="2" stroke-miterlimit="10" d="M962.399-343.014l-3.732,3.854
			c2.169,0.677,4.469,1.362,6.904,2.052l4.755-4.917C967.683-342.33,965.038-342.656,962.399-343.014z"/>
		<path fill="#FFFFFF" stroke="#FFFFFF" stroke-width="2" stroke-miterlimit="10" d="M970.326-342.025l-4.755,4.917
			c2.328,0.659,4.771,1.317,7.332,1.968l5.805-5.998C975.911-341.407,973.119-341.702,970.326-342.025z"/>
		<path fill="#FFFFFF" stroke="#FFFFFF" stroke-width="2" stroke-miterlimit="10" d="M953.131-344.385l-2.495,2.578
			c2.414,0.841,5.097,1.731,8.03,2.647l3.732-3.854C959.3-343.433,956.21-343.891,953.131-344.385z"/>
		<path fill="#FFFFFF" stroke="#FFFFFF" stroke-width="2" stroke-miterlimit="10" d="M935.959-347.576c0,0,2.516,1.187,7.149,2.994
			l1.272-1.315C941.56-346.423,938.749-346.981,935.959-347.576z"/>
		<path fill="#FFFFFF" stroke="#FFFFFF" stroke-width="2" stroke-miterlimit="10" d="M978.707-341.137l-5.805,5.998
			c2.331,0.592,4.758,1.174,7.267,1.74l6.794-7.019C984.213-340.633,981.461-340.872,978.707-341.137z"/>
		<path fill="#FFFFFF" stroke="#FFFFFF" stroke-width="2" stroke-miterlimit="10" d="M995.4-339.831l-7.757,8.018
			c2.946,0.584,5.99,1.141,9.129,1.657l8.853-9.146C1002.231-339.442,998.82-339.62,995.4-339.831z"/>
		<path fill="#FFFFFF" stroke="#FFFFFF" stroke-width="2" stroke-miterlimit="10" d="M1005.625-339.301l-8.853,9.146
			c2.202,0.363,4.445,0.707,6.737,1.029l9.594-9.912C1010.62-339.109,1008.127-339.197,1005.625-339.301z"/>
		<path fill="#FFFFFF" stroke="#FFFFFF" stroke-width="2" stroke-miterlimit="10" d="M986.963-340.417l-6.794,7.019
			c2.414,0.547,4.906,1.078,7.475,1.586l7.757-8.018C992.594-340,989.78-340.197,986.963-340.417z"/>
		<path fill="#FFFFFF" stroke="#FFFFFF" stroke-width="2" stroke-miterlimit="10" d="M1020.022-338.879l-10.227,10.563
			c2.592,0.304,5.23,0.575,7.916,0.814l10.934-11.296C1025.794-338.805,1022.917-338.832,1020.022-338.879z"/>
		<path fill="#FFFFFF" stroke="#FFFFFF" stroke-width="2" stroke-miterlimit="10" d="M1013.104-339.039l-9.594,9.912
			c2.063,0.29,4.158,0.562,6.287,0.812l10.227-10.563C1017.727-338.917,1015.418-338.973,1013.104-339.039z"/>
		<path fill="#FFFFFF" stroke="#FFFFFF" stroke-width="2" stroke-miterlimit="10" d="M1028.646-338.796l-10.934,11.296
			c2.478,0.219,4.991,0.405,7.542,0.56l11.509-11.89C1034.082-338.803,1031.376-338.792,1028.646-338.796z"/>
		<path fill="#FFFFFF" stroke="#FFFFFF" stroke-width="2" stroke-miterlimit="10" d="M1072.732-340.152l-12.594,13.013
			c3.707-0.274,7.458-0.645,11.247-1.101l12.263-12.668C1080.122-340.639,1076.48-340.384,1072.732-340.152z"/>
		<path fill="#FFFFFF" stroke="#FFFFFF" stroke-width="2" stroke-miterlimit="10" d="M1065.466-339.735l-12.604,13.02
			c2.409-0.107,4.83-0.242,7.276-0.424l12.594-13.013C1070.351-340.003,1067.929-339.865,1065.466-339.735z"/>
		<path fill="#FFFFFF" stroke="#FFFFFF" stroke-width="2" stroke-miterlimit="10" d="M1045.813-338.986l-12.028,12.427
			c3.234,0.09,6.519,0.123,9.849,0.095l12.436-12.846C1052.705-339.18,1049.285-339.069,1045.813-338.986z"/>
		<path fill="#FFFFFF" stroke="#FFFFFF" stroke-width="2" stroke-miterlimit="10" d="M1036.764-338.832l-11.509,11.89
			c2.8,0.17,5.646,0.299,8.53,0.383l12.028-12.427C1042.831-338.913,1039.813-338.863,1036.764-338.832z"/>
		<path fill="#FFFFFF" stroke="#FFFFFF" stroke-width="2" stroke-miterlimit="10" d="M1056.069-339.31l-12.436,12.846
			c3.04-0.027,6.117-0.11,9.229-0.251l12.604-13.02C1062.395-339.578,1059.254-339.434,1056.069-339.31z"/>
		<path fill="#FFFFFF" stroke="#FFFFFF" stroke-width="2" stroke-miterlimit="10" d="M1083.648-340.908l-12.263,12.668
			c3.92-0.471,7.878-1.031,11.878-1.714l11.508-11.89C1091.213-341.518,1087.504-341.203,1083.648-340.908z"/>
		<path fill="#FFFFFF" stroke="#FFFFFF" stroke-width="2" stroke-miterlimit="10" d="M1140.604-347.576c0,0-1.089,0.191-3.114,0.516
			l-1.467,1.514C1137.549-346.205,1139.077-346.877,1140.604-347.576z"/>
		<path fill="#FFFFFF" stroke="#FFFFFF" stroke-width="2" stroke-miterlimit="10" d="M1116.485-344.151l-8.232,8.504
			c4.432-1.268,8.885-2.679,13.356-4.258l5.437-5.613C1123.975-345.095,1120.439-344.631,1116.485-344.151z"/>
		<path fill="#FFFFFF" stroke="#FFFFFF" stroke-width="2" stroke-miterlimit="10" d="M1137.49-347.06
			c-2.307,0.368-5.853,0.911-10.444,1.542l-5.437,5.613c4.788-1.688,9.598-3.565,14.414-5.643L1137.49-347.06z"/>
		<path fill="#FFFFFF" stroke="#FFFFFF" stroke-width="2" stroke-miterlimit="10" d="M1094.771-341.844l-11.508,11.89
			c4.342-0.742,8.727-1.622,13.144-2.637l10.085-10.419C1102.817-342.615,1098.899-342.222,1094.771-341.844z"/>
		<path fill="#FFFFFF" stroke="#FFFFFF" stroke-width="2" stroke-miterlimit="10" d="M1106.492-343.009l-10.085,10.419
			c3.924-0.901,7.875-1.921,11.846-3.057l8.232-8.504C1113.396-343.776,1110.059-343.392,1106.492-343.009z"/>
		<polygon fill="#FFFFFF" stroke="#FFFFFF" stroke-width="2" stroke-miterlimit="10" points="1062.822,-391.097 1063.49,-391.097 
			1065.767,-393.452 		"/>
		<polygon fill="#FFFFFF" stroke="#FFFFFF" stroke-width="2" stroke-miterlimit="10" points="1139.679,-390.791 1135.313,-394.284 
			1131.93,-390.791 		"/>
		<path fill="#FFFFFF" stroke="#FFFFFF" stroke-width="2" stroke-miterlimit="10" d="M1041.215-346.958
			c1.091,0.108,2.112,0.164,3.174,0.249l1.074-1.108C1042.843-347.169,1041.215-346.958,1041.215-346.958z"/>
		<path fill="#FFFFFF" stroke="#FFFFFF" stroke-width="2" stroke-miterlimit="10" d="M1113.791-382.568l-31.354,32.39
			C1104.157-357.41,1111.396-372.939,1113.791-382.568z"/>
		<path fill="#FFFFFF" stroke="#FFFFFF" stroke-width="2" stroke-miterlimit="10" d="M1059.624-353.255l-6.757,6.98
			c3.608,0.066,6.991-0.031,10.192-0.26l57.579-59.488l-5.604-4.484l-33.147,34.25C1076.49-364.664,1067.68-357.55,1059.624-353.255
			z"/>
		<polygon fill="#FFFFFF" stroke="#FFFFFF" stroke-width="2" stroke-miterlimit="10" points="1131.93,-390.791 1135.313,-394.284 
			1129.572,-398.874 1121.747,-390.791 		"/>
		<path fill="#FFFFFF" stroke="#FFFFFF" stroke-width="2" stroke-miterlimit="10" d="M1073.305-347.836l52.397-54.134l-5.063-4.051
			l-57.579,59.488C1066.727-346.796,1070.139-347.236,1073.305-347.836z"/>
		<path fill="#FFFFFF" stroke="#FFFFFF" stroke-width="2" stroke-miterlimit="10" d="M1081.887-376.257l33.147-34.25l-5.013-4.012
			l-23.986,24.778C1085.16-384.678,1083.726-380.206,1081.887-376.257z"/>
		<polygon fill="#FFFFFF" stroke="#FFFFFF" stroke-width="2" stroke-miterlimit="10" points="1079.269,-391.097 1105.464,-418.164 
			1101.096,-421.657 1096.895,-418.301 1070.563,-391.097 		"/>
		<path fill="#FFFFFF" stroke="#FFFFFF" stroke-width="2" stroke-miterlimit="10" d="M1044.389-346.709
			c2.94,0.233,5.776,0.385,8.479,0.436l6.757-6.98c-5.551,2.958-10.719,4.58-14.16,5.437L1044.389-346.709z"/>
		<path fill="#FFFFFF" stroke="#FFFFFF" stroke-width="2" stroke-miterlimit="10" d="M1086.281-391.097
			c-0.068,0.465-0.165,0.903-0.245,1.357l23.986-24.778l-4.559-3.646l-26.195,27.066L1086.281-391.097L1086.281-391.097z"/>
		<polygon fill="#FFFFFF" stroke="#FFFFFF" stroke-width="2" stroke-miterlimit="10" points="1096.895,-418.301 1065.767,-393.452 
			1063.49,-391.097 1070.563,-391.097 		"/>
		<path fill="#FFFFFF" stroke="#FFFFFF" stroke-width="2" stroke-miterlimit="10" d="M1082.438-350.178l31.354-32.39
			c1.208-4.863,1.195-8.223,1.195-8.223h6.761l7.825-8.083l-3.869-3.098l-52.397,54.134
			C1076.604-348.461,1079.645-349.248,1082.438-350.178z"/>
	</g>
	<g>
		<path fill="#FFFFFF" d="M935.192-347.146c0,0,2.529,1.193,7.19,3.012l1.281-1.324C940.825-345.986,938-346.548,935.192-347.146z"
			/>
		<path fill="#FFFFFF" d="M1141.07-347.146c0,0-1.096,0.193-3.134,0.519l-1.475,1.523
			C1137.997-345.766,1139.533-346.443,1141.07-347.146z"/>
		<path fill="#FFFFFF" d="M1106.753-342.552c-3.698,0.397-7.641,0.792-11.792,1.172c-3.58,0.327-7.311,0.645-11.19,0.943
			c-3.546,0.27-7.21,0.526-10.98,0.761c-2.397,0.148-4.832,0.288-7.311,0.419c-3.092,0.158-6.25,0.301-9.454,0.427
			c-3.385,0.131-6.825,0.242-10.319,0.326c-2.998,0.073-6.035,0.125-9.103,0.156c-2.698,0.028-5.42,0.04-8.166,0.034
			c-2.869-0.008-5.764-0.034-8.676-0.082c-2.31-0.04-4.633-0.095-6.962-0.161c-2.497-0.072-5.005-0.159-7.522-0.264
			c-3.415-0.143-6.846-0.32-10.287-0.532c-2.822-0.171-5.654-0.369-8.486-0.592c-2.768-0.216-5.536-0.457-8.308-0.725
			c-2.812-0.27-5.62-0.566-8.43-0.891c-2.661-0.308-5.321-0.635-7.976-0.997c-3.117-0.421-6.227-0.881-9.324-1.377
			c-2.945-0.473-5.883-0.979-8.803-1.523l-1.281,1.324c2.102,0.822,4.643,1.769,7.574,2.792c2.429,0.846,5.127,1.743,8.08,2.664
			c2.182,0.679,4.494,1.37,6.944,2.063c2.343,0.663,4.801,1.327,7.376,1.979c2.345,0.596,4.787,1.182,7.311,1.751
			c2.428,0.55,4.936,1.084,7.518,1.597c2.965,0.588,6.028,1.147,9.186,1.668c2.215,0.365,4.473,0.71,6.777,1.034
			c2.075,0.292,4.184,0.564,6.326,0.816c2.607,0.307,5.262,0.58,7.963,0.821c2.492,0.22,5.021,0.405,7.589,0.561
			c2.817,0.171,5.679,0.302,8.581,0.385c3.254,0.092,6.559,0.126,9.909,0.096c3.058-0.028,6.153-0.111,9.284-0.252
			c2.423-0.109,4.858-0.245,7.319-0.427c3.729-0.276,7.503-0.647,11.315-1.106c3.943-0.474,7.926-1.038,11.948-1.725
			c4.368-0.747,8.78-1.632,13.223-2.652c3.947-0.908,7.923-1.934,11.917-3.075c4.457-1.275,8.938-2.695,13.437-4.283
			c4.817-1.699,9.655-3.587,14.502-5.676l1.475-1.523c-2.32,0.369-5.887,0.916-10.508,1.552c-3.09,0.425-6.646,0.892-10.625,1.375
			C1113.696-343.324,1110.34-342.937,1106.753-342.552z"/>
		<polygon fill="#FFFFFF" points="1062.818,-390.93 1063.491,-390.93 1065.781,-393.297 		"/>
		<path fill="#FFFFFF" d="M1041.082-346.524c1.098,0.109,2.127,0.165,3.193,0.25l1.08-1.116
			C1042.721-346.736,1041.082-346.524,1041.082-346.524z"/>
		<path fill="#FFFFFF" d="M1126.078-401.868l-5.094-4.076l-5.637-4.511l-5.045-4.037l-4.585-3.667l-4.394-3.514l-4.228,3.375
			l-31.315,25l-2.29,2.367h7.116h8.759h7.053c-0.068,0.469-0.166,0.909-0.245,1.368c-0.882,5.091-2.325,9.59-4.174,13.563
			c-5.431,11.663-14.293,18.82-22.397,23.141c-5.585,2.976-10.785,4.608-14.247,5.47l-1.08,1.116
			c2.958,0.234,5.812,0.387,8.529,0.437c3.629,0.067,7.034-0.03,10.255-0.26c3.688-0.264,7.121-0.707,10.306-1.311
			c3.317-0.63,6.378-1.42,9.188-2.357c21.85-7.274,29.132-22.897,31.54-32.584c1.216-4.892,1.203-8.271,1.203-8.271h6.803h10.244
			h7.796l-4.395-3.514l-5.773-4.618L1126.078-401.868z"/>
	</g>
	<g>
		<g>
			<path fill="none" stroke="#FFFFFF" stroke-miterlimit="10" d="M772.154,33.636C784.435,41.884,788.347,35,788.347,35
				c2.954-3.233,2.084-8.964,2.084-8.964c0.344-6.888-3.789-5.364-3.789-5.364c-3.79,0.461-3.215,4.964-3.215,4.964
				c1.589,7.503-5.271,3.718-5.271,3.718c-7.273-2.157-6.143,4.099-6.143,4.099c3.368,8.673-5.454,3.858-5.454,3.858
				c-7.698-1.39-4.781,5.01-4.781,5.01c0.953,2.83-1.122,5.6-1.122,5.6c-1.886,2.941-0.62,4.337,2.025,6.123
				c0,0,6.582-2.524,5.957-8.783"/>
			<path fill="none" stroke="#FFFFFF" stroke-miterlimit="10" d="M761.451,41.685c0,0,6.529,6.384,13.415,2.974
				c0,0,4.904-2.002,4.436-7.558"/>
			<path fill="none" stroke="#FFFFFF" stroke-miterlimit="10" d="M783.427,25.636c0.271,2.02,5.169,6.377,6.991-1.181"/>
			<path fill="none" stroke="#FFFFFF" stroke-miterlimit="10" d="M786.316,22.912c0,0-2.28,1.975,0.08,3.273
				c0.854,0.471,2.28-0.502,2.145-2.592C788.503,23.012,787.378,22.09,786.316,22.912z"/>
		</g>
		<path fill="none" stroke="#FFFFFF" stroke-miterlimit="10" d="M773.145,35.364c0,0,3.134,2.53,5.771,2.776"/>
		<path fill="none" stroke="#FFFFFF" stroke-miterlimit="10" d="M773.324,36.336c0,0,3.635,2.684,5.602,2.557"/>
		<path fill="none" stroke="#FFFFFF" stroke-miterlimit="10" d="M762.215,43.626c0,0,3.068,2.701,6.228,2.78"/>
		<path fill="none" stroke="#FFFFFF" stroke-miterlimit="10" d="M762.404,44.672c0,0,3.119,2.613,5.935,2.339"/>
		<path fill="none" stroke="#FFFFFF" stroke-miterlimit="10" d="M784.055,28.435c0,0,3.392,3.642,6.237-0.778"/>
		
			<path fill="none" stroke="#FFFFFF" stroke-linecap="round" stroke-linejoin="round" stroke-miterlimit="10" stroke-dasharray="0.5,2" d="
			M772.94,31.901c0,0,0.688-2.726,4.785-1.577c4.099,1.149,2.54,1.147,4.518,0.952"/>
		
			<path fill="none" stroke="#FFFFFF" stroke-linecap="round" stroke-linejoin="round" stroke-miterlimit="10" stroke-dasharray="0.5,2" d="
			M762.163,39.607c0,0,1.14-2.057,4.132-1.228c0,0,2.99,1.687,4.034,1.516"/>
	</g>
	<g>
		<g>
			<path fill="none" stroke="#FFFFFF" stroke-miterlimit="10" d="M801.811,103.376c0,0,6.145,6.048,4.591,14.121
				c0,0,0.172,1.146,2.04,0.461c0,0,9.966-3.751,15.216,1.571c0,0,0.473,0.293-1.729,0.926c0,0-2.049,0.109-0.5,1.516
				c0,0,1.882,1.458-0.365,2.043c0,0-2.578,0.436-0.984,1.983c0,0,1.756,1.63-0.843,1.652c0,0-2.192-0.32-0.942,1.388
				c0,0,1.209,2.063-1.186,1.57c0,0-2.909-0.95-1.877,1.566c0,0,1.122,2.149-1.151,1.327c0,0-1.834-0.73-1.762,0.771
				c0,0,0.249,1.658-1.396,0.978c0,0-2.147-1.225-2.397,1.059c0,0,0.238,2.278-1.932,0.862c0,0-2.082-2.319-3.553-7.319
				c0,0-0.758-4.846-0.718-5.82c0,0-0.116-0.943-2.994-0.792c0,0-5.126,1.063-8.629,0.133c0,0-3.158-0.246-5.227-2.707
				c0,0-1.732-1.277,0.357-1.191c0,0,2.892,0.117,1.161-1.197c0,0-1.873-1.373,0.633-1.525c0,0,1.785,0.005,0.56-1.574
				c0,0-1.737-2.397,1.117-2.233c0,0,2.152,0.283,1.235-1.219c0,0-1.186-2.082,1.229-1.66c0,0,2.252,0.438,1.511-1.307
				c0,0-0.609-1.608,1.337-1.125c0,0,2.051,0.615,1.72-1.175c0,0-0.311-2.232,1.364-1.182c0,0,1.67,1.264,1.543-0.441
				C799.239,104.835,799.168,101.059,801.811,103.376z"/>
			<path fill="none" stroke="#FFFFFF" stroke-miterlimit="10" d="M800.502,117.025c0,0,1.106,0.849,1.74,3.001
				c0,0,1.321,2.285,4.118,3.139c0,0,4.104,0.896,4.849,0.552"/>
			<path fill="none" stroke="#FFFFFF" stroke-miterlimit="10" d="M798.763,120.068c0,0,4.027-0.103,8.985,5.69"/>
			<path fill="none" stroke="#FFFFFF" stroke-miterlimit="10" d="M804.672,117.274c0,0,0.605,2.414,3.867,2.441"/>
		</g>
		<path fill="none" stroke="#FFFFFF" stroke-miterlimit="10" d="M797.462,106.2c0,0,0.2,0.856-0.21,1.463"/>
		<path fill="none" stroke="#FFFFFF" stroke-miterlimit="10" d="M794.386,108.604c0,0,0.548,0.729-0.048,1.358"/>
		<path fill="none" stroke="#FFFFFF" stroke-miterlimit="10" d="M791.255,111.114c0,0,1.047,1.188,0.453,1.765"/>
		<path fill="none" stroke="#FFFFFF" stroke-miterlimit="10" d="M788.704,114.06c0,0,1.522,1.41,1.058,2.281"/>
		<path fill="none" stroke="#FFFFFF" stroke-miterlimit="10" d="M788.112,117.835c0,0,0.916,1.001,0.503,1.926"/>
		<path fill="none" stroke="#FFFFFF" stroke-miterlimit="10" d="M800.467,103.724c0,0-0.007,1.725-0.443,2.286"/>
		<path fill="none" stroke="#FFFFFF" stroke-miterlimit="10" d="M821.9,119.34c0,0-1.135-0.124-1.536,0.58"/>
		<path fill="none" stroke="#FFFFFF" stroke-miterlimit="10" d="M820.904,122.896c0,0-0.855,0.093-1.45,0.634"/>
		<path fill="none" stroke="#FFFFFF" stroke-miterlimit="10" d="M819.247,126.602c0,0-1.314-0.129-1.477,0.1"/>
		<path fill="none" stroke="#FFFFFF" stroke-miterlimit="10" d="M817.42,129.771c0,0-0.506-0.7-1.452-0.342"/>
		<path fill="none" stroke="#FFFFFF" stroke-miterlimit="10" d="M814.285,132.458c0,0-0.635-0.295-1.348-0.093"/>
		<path fill="none" stroke="#FFFFFF" stroke-miterlimit="10" d="M811.307,134.366c0,0-0.65-0.383-1.539-0.433"/>
		<path fill="none" stroke="#FFFFFF" stroke-miterlimit="10" d="M806.665,135.715c0,0,0.434,0.77,0.91,0.938"/>
		<path fill="none" stroke="#FFFFFF" stroke-miterlimit="10" d="M786.49,120.386c0,0,0.823,0.883,1.724,1.235"/>
		<path fill="none" stroke="#FFFFFF" stroke-miterlimit="10" d="M800.838,122.191c0,0,2.661,0.148,2.611,2.226"/>
		<path fill="none" stroke="#FFFFFF" stroke-miterlimit="10" d="M799.98,117.896c0,0,1.143,1.289,1.559,2.459"/>
		<path fill="none" stroke="#FFFFFF" stroke-miterlimit="10" d="M799.381,118.739c0,0,0.966,0.699,1.486,1.392"/>
		<path fill="none" stroke="#FFFFFF" stroke-miterlimit="10" d="M806.491,123.639c0,0,1.146,0.91,2.486,1.184"/>
		
			<path fill="none" stroke="#FFFFFF" stroke-linecap="round" stroke-linejoin="round" stroke-miterlimit="10" stroke-dasharray="0.5,2" d="
			M809.283,119.498c0,0,6.117-2.57,11.275-0.642"/>
		
			<path fill="none" stroke="#FFFFFF" stroke-linecap="round" stroke-linejoin="round" stroke-miterlimit="10" stroke-dasharray="0.5,2" d="
			M801.167,104.499c0,0,4.99,6.395,3.49,11.942"/>
		<path fill="none" stroke="#FFFFFF" stroke-miterlimit="10" d="M789.558,121.962c0,0,6.203,0.985,10.27,0.053"/>
		<path fill="none" stroke="#FFFFFF" stroke-miterlimit="10" d="M803.719,125.311c0,0,0.676,6.832,2.765,9.637"/>
	</g>
	<g>
		<g>
			<path fill="none" stroke="#FFFFFF" stroke-miterlimit="10" d="M787.882,168.492c0,0,8.619-0.202,13.334,6.532
				c0,0,0.943,0.674,1.751-1.145c0,0,4.243-9.766,11.719-9.832c0,0,0.539-0.136-0.538,1.885c0,0-1.348,1.549,0.74,1.414
				c0,0,2.356-0.336,1.212,1.685c0,0-1.481,2.154,0.74,2.087c0,0,2.392-0.126,0.599,1.756c0,0-1.756,1.352,0.341,1.643
				c0,0,2.323,0.567,0.303,1.943c0,0-2.707,1.428-0.182,2.438c0,0,2.324,0.69,0.151,1.75c0,0-1.801,0.81-0.672,1.802
				c0,0,1.364,0.977-0.27,1.684c0,0-2.374,0.689-0.91,2.457c0,0,1.803,1.416-0.724,1.988c0,0-3.114-0.119-7.729-2.543
				c0,0-4.007-2.828-4.68-3.535c0,0-0.758-0.572-2.652,1.6c0,0-2.803,4.42-5.91,6.287c0,0-2.374,2.096-5.581,1.869
				c0,0-2.121,0.354-0.606-1.086c0,0,2.097-1.994-0.051-1.667c0,0-2.29,0.388-0.656-1.515c0,0,1.246-1.28-0.74-1.498
				c0,0-2.931-0.421-0.826-2.357c0,0,1.701-1.348-0.016-1.734c0,0-2.32-0.598-0.337-2.037c0,0,1.881-1.313,0.113-1.995
				c0,0-1.579-0.682,0.122-1.743c0,0,1.869-1.043,0.354-2.054c0,0-1.818-1.329,0.101-1.801c0,0,2.071-0.32,0.758-1.415
				C787.14,171.354,784.378,168.778,787.882,168.492z"/>
			<path fill="none" stroke="#FFFFFF" stroke-miterlimit="10" d="M796.771,178.931c0,0,1.38-0.201,3.366,0.842
				c0,0,2.56,0.641,5.12-0.773c0,0,3.5-2.323,3.771-3.098"/>
			<path fill="none" stroke="#FFFFFF" stroke-miterlimit="10" d="M797.746,182.298c0,0,2.729-2.963,10.34-2.492"/>
			<path fill="none" stroke="#FFFFFF" stroke-miterlimit="10" d="M799.853,176.11c0,0,2.154,1.246,4.445-1.077"/>
		</g>
		<path fill="none" stroke="#FFFFFF" stroke-miterlimit="10" d="M786.883,173.581c0,0,0.754,0.452,0.904,1.168"/>
		<path fill="none" stroke="#FFFFFF" stroke-miterlimit="10" d="M786.468,177.463c0,0,0.905,0.112,0.942,0.979"/>
		<path fill="none" stroke="#FFFFFF" stroke-miterlimit="10" d="M786.091,181.458c0,0,1.583,0.074,1.583,0.904"/>
		<path fill="none" stroke="#FFFFFF" stroke-miterlimit="10" d="M786.431,185.339c0,0,2.072-0.112,2.374,0.829"/>
		<path fill="none" stroke="#FFFFFF" stroke-miterlimit="10" d="M788.729,188.392c0,0,1.356,0.038,1.733,0.979"/>
		<path fill="none" stroke="#FFFFFF" stroke-miterlimit="10" d="M787.196,169.699c0,0,1.232,1.206,1.332,1.91"/>
		<path fill="none" stroke="#FFFFFF" stroke-miterlimit="10" d="M813.326,165.177c0,0-0.879,0.729-0.652,1.508"/>
		<path fill="none" stroke="#FFFFFF" stroke-miterlimit="10" d="M815.187,168.368c0,0-0.528,0.679-0.554,1.482"/>
		<path fill="none" stroke="#FFFFFF" stroke-miterlimit="10" d="M816.693,172.138c0,0-1.006,0.854-0.955,1.13"/>
		<path fill="none" stroke="#FFFFFF" stroke-miterlimit="10" d="M817.698,175.653c0,0-0.855-0.125-1.257,0.805"/>
		<path fill="none" stroke="#FFFFFF" stroke-miterlimit="10" d="M817.446,179.774c0,0-0.653,0.251-1.005,0.904"/>
		<path fill="none" stroke="#FFFFFF" stroke-miterlimit="10" d="M816.743,183.241c0,0-0.728,0.202-1.382,0.805"/>
		<path fill="none" stroke="#FFFFFF" stroke-miterlimit="10" d="M814.481,187.512c0,0,0.854,0.227,1.307,0"/>
		<path fill="none" stroke="#FFFFFF" stroke-miterlimit="10" d="M789.433,191.331c0,0,1.207,0.024,2.086-0.377"/>
		<path fill="none" stroke="#FFFFFF" stroke-miterlimit="10" d="M800.714,182.286c0,0,1.96-1.807,3.417-0.326"/>
		<path fill="none" stroke="#FFFFFF" stroke-miterlimit="10" d="M797.033,179.913c0,0,1.722,0.076,2.853,0.59"/>
		<path fill="none" stroke="#FFFFFF" stroke-miterlimit="10" d="M797.222,180.93c0,0,1.174-0.207,2.035-0.101"/>
		<path fill="none" stroke="#FFFFFF" stroke-miterlimit="10" d="M805.688,179.233c0,0,1.451-0.188,2.581-0.961"/>
		
			<path fill="none" stroke="#FFFFFF" stroke-linecap="round" stroke-linejoin="round" stroke-miterlimit="10" stroke-dasharray="0.5,2" d="
			M804.658,174.348c0,0,2.412-6.181,7.387-8.542"/>
		
			<path fill="none" stroke="#FFFFFF" stroke-linecap="round" stroke-linejoin="round" stroke-miterlimit="10" stroke-dasharray="0.5,2" d="
			M788.239,169.737c0,0,8.065,0.866,11.005,5.803"/>
		<path fill="none" stroke="#FFFFFF" stroke-miterlimit="10" d="M792.699,190.227c0,0,5.024-3.77,7.186-7.337"/>
		<path fill="none" stroke="#FFFFFF" stroke-miterlimit="10" d="M804.96,182.388c0,0,5.376,4.271,8.844,4.723"/>
	</g>
	<g>
		<g>
			<g>
				<path fill="none" stroke="#FFFFFF" stroke-miterlimit="10" d="M792.419,59.173l-26.484,27.395c0,0-4.247,7.854,6.705,10.285
					l27.329-28.802C799.969,68.051,800.409,58.871,792.419,59.173z"/>
				<path fill="none" stroke="#FFFFFF" stroke-miterlimit="10" d="M792.479,58.818c-0.048,0.145-1.492,7.209,7.49,9.232"/>
				<path fill="none" stroke="#FFFFFF" stroke-miterlimit="10" d="M787.105,65.267c0,0,2.243-0.761,5.26-2.793"/>
				<path fill="none" stroke="#FFFFFF" stroke-miterlimit="10" d="M779.723,73.242c0,0,11.315-5.681,14.104-8.007"/>
				<path fill="none" stroke="#FFFFFF" stroke-miterlimit="10" d="M771.726,81.51c0,0,22.532-11.464,25.473-13.787"/>
				<path fill="none" stroke="#FFFFFF" stroke-miterlimit="10" d="M765.623,88.857c0,0,28.345-15.448,30.763-17.121"/>
				<path fill="none" stroke="#FFFFFF" stroke-miterlimit="10" d="M765.946,91.929c0,0,18.096-9.944,22.713-12.582"/>
				<path fill="none" stroke="#FFFFFF" stroke-miterlimit="10" d="M767.699,94.478c0,0,11.019-5.943,14.264-8.311"/>
			</g>
			<path fill="none" stroke="#FFFFFF" stroke-miterlimit="10" d="M788.351,66.632c-3.284,1.591-5.186,2.227-5.186,2.227"/>
			<path fill="none" stroke="#FFFFFF" stroke-miterlimit="10" d="M775.641,76.992c0,0,6.054-2.788,8.134-3.547"/>
			<path fill="none" stroke="#FFFFFF" stroke-miterlimit="10" d="M768.27,84.929c0,0,3.817-1.806,6.026-2.663"/>
			<path fill="none" stroke="#FFFFFF" stroke-miterlimit="10" d="M790.052,62.13c0,0,0.358,1.686,1.146,2.314"/>
			<path fill="none" stroke="#FFFFFF" stroke-miterlimit="10" d="M788.804,63.724c0,0,0.221,1.173,0.759,1.745"/>
			<path fill="none" stroke="#FFFFFF" stroke-miterlimit="10" d="M787.299,65.004"/>
			<path fill="none" stroke="#FFFFFF" stroke-miterlimit="10" d="M787.441,64.88c0,0,0.054,0.815,0.667,1.389"/>
			<path fill="none" stroke="#FFFFFF" stroke-miterlimit="10" d="M786.224,66.272c0,0,0.357,0.745,0.773,1.162"/>
			<path fill="none" stroke="#FFFFFF" stroke-miterlimit="10" d="M784.855,67.646c0,0,0.47,0.812,0.988,1.131"/>
			<path fill="none" stroke="#FFFFFF" stroke-miterlimit="10" d="M783.769,68.836c0,0,0.508,0.776,0.806,0.936"/>
			<path fill="none" stroke="#FFFFFF" stroke-miterlimit="10" d="M782.864,69.79c0,0,0.637,0.652,0.958,0.889"/>
			<path fill="none" stroke="#FFFFFF" stroke-miterlimit="10" d="M781.756,70.879c0,0,0.685,0.729,1.054,1.018"/>
			<path fill="none" stroke="#FFFFFF" stroke-miterlimit="10" d="M780.746,72.021c0,0,0.608,0.778,0.881,0.913"/>
			<path fill="none" stroke="#FFFFFF" stroke-miterlimit="10" d="M779.511,73.131c0,0,0.786,0.732,1.032,0.892"/>
			<path fill="none" stroke="#FFFFFF" stroke-miterlimit="10" d="M778.429,74.12c0,0,0.488,0.546,0.907,0.861"/>
			<path fill="none" stroke="#FFFFFF" stroke-miterlimit="10" d="M777.473,75.111c0,0,0.214,0.513,0.758,0.857"/>
			<path fill="none" stroke="#FFFFFF" stroke-miterlimit="10" d="M776.49,76.203c0,0,0.536,0.648,0.706,0.83"/>
			<path fill="none" stroke="#FFFFFF" stroke-miterlimit="10" d="M775.738,77.085c0,0,0.387,0.557,0.608,0.739"/>
			<path fill="none" stroke="#FFFFFF" stroke-miterlimit="10" d="M774.987,77.903c0,0,0.449,0.583,0.771,0.807"/>
			<path fill="none" stroke="#FFFFFF" stroke-miterlimit="10" d="M774.085,78.768c0,0,0.512,0.61,0.734,0.756"/>
			<path fill="none" stroke="#FFFFFF" stroke-miterlimit="10" d="M773.364,79.67c0,0,0.51,0.68,0.735,0.725"/>
			<path fill="none" stroke="#FFFFFF" stroke-miterlimit="10" d="M772.572,80.412c0,0,0.51,0.68,0.845,0.859"/>
			<path fill="none" stroke="#FFFFFF" stroke-miterlimit="10" d="M771.302,81.426c0,0,0.539,0.535,0.886,0.735"/>
			<path fill="none" stroke="#FFFFFF" stroke-miterlimit="10" d="M770.56,82.409c0,0,0.466,0.444,0.787,0.643"/>
			<path fill="none" stroke="#FFFFFF" stroke-miterlimit="10" d="M769.648,83.364c0,0,0.663,0.627,0.979,0.807"/>
			<path fill="none" stroke="#FFFFFF" stroke-miterlimit="10" d="M768.763,84.085c0,0,0.727,1.066,1.009,1.092"/>
			<path fill="none" stroke="#FFFFFF" stroke-miterlimit="10" d="M767.941,85.226c0,0,0.452,0.716,0.675,0.873"/>
			<path fill="none" stroke="#FFFFFF" stroke-miterlimit="10" d="M767.03,86.172c0,0,0.327,0.504,0.623,0.702"/>
		</g>
		<path fill="none" stroke="#FFFFFF" stroke-miterlimit="10" d="M792.825,60.298c0,0,5.405-0.037,5.924,7.036"/>
		<path fill="none" stroke="#FFFFFF" stroke-miterlimit="10" d="M792.951,61.266c0,0,4.509,0.601,4.848,5.893"/>
		<path fill="none" stroke="#FFFFFF" stroke-miterlimit="10" d="M792.91,62.104c0,0,3.202,0.825,4.12,4.66"/>
		<path fill="none" stroke="#FFFFFF" stroke-miterlimit="10" d="M793.368,63.353c0,0,1.906,0.621,2.656,2.927"/>
	</g>
	<g>
		<g>
			<g>
				<path fill="none" stroke="#FFFFFF" stroke-miterlimit="10" d="M758.259,159.915l-30.987-22.172c0,0-5.595-6.961,4.74-11.325
					l32.073,23.404C764.085,149.822,766.173,158.772,758.259,159.915z"/>
				<path fill="none" stroke="#FFFFFF" stroke-miterlimit="10" d="M758.381,160.254c-0.072-0.135-2.767-6.822,5.704-10.432"/>
				<path fill="none" stroke="#FFFFFF" stroke-miterlimit="10" d="M751.934,154.879c0,0,2.345,0.345,5.678,1.8"/>
				<path fill="none" stroke="#FFFFFF" stroke-miterlimit="10" d="M743.235,148.365c0,0,12.153,3.548,15.315,5.333"/>
				<path fill="none" stroke="#FFFFFF" stroke-miterlimit="10" d="M733.879,141.675c0,0,24.229,7.215,27.54,8.97"/>
				<path fill="none" stroke="#FFFFFF" stroke-miterlimit="10" d="M726.551,135.547c0,0,30.666,10.086,33.346,11.296"/>
				<path fill="none" stroke="#FFFFFF" stroke-miterlimit="10" d="M726.316,132.468c0,0,19.592,6.521,24.608,8.282"/>
				<path fill="none" stroke="#FFFFFF" stroke-miterlimit="10" d="M727.581,129.646c0,0,11.909,3.859,15.527,5.603"/>
			</g>
			<path fill="none" stroke="#FFFFFF" stroke-miterlimit="10" d="M752.912,153.313c-3.517-0.973-5.501-1.255-5.501-1.255"/>
			<path fill="none" stroke="#FFFFFF" stroke-miterlimit="10" d="M738.544,145.413c0,0,6.457,1.651,8.64,2.021"/>
			<path fill="none" stroke="#FFFFFF" stroke-miterlimit="10" d="M729.862,138.936c0,0,4.08,1.087,6.408,1.532"/>
			<path fill="none" stroke="#FFFFFF" stroke-miterlimit="10" d="M755.397,157.434c0,0,0.049-1.722,0.71-2.483"/>
			<path fill="none" stroke="#FFFFFF" stroke-miterlimit="10" d="M753.883,156.091c0,0,0.006-1.193,0.432-1.854"/>
			<path fill="none" stroke="#FFFFFF" stroke-miterlimit="10" d="M752.172,155.104"/>
			<path fill="none" stroke="#FFFFFF" stroke-miterlimit="10" d="M752.334,155.198c0,0-0.094-0.81,0.406-1.485"/>
			<path fill="none" stroke="#FFFFFF" stroke-miterlimit="10" d="M750.886,154.05c0,0,0.217-0.798,0.551-1.282"/>
			<path fill="none" stroke="#FFFFFF" stroke-miterlimit="10" d="M749.292,152.945c0,0,0.315-0.883,0.769-1.29"/>
			<path fill="none" stroke="#FFFFFF" stroke-miterlimit="10" d="M748.009,151.971c0,0,0.359-0.855,0.623-1.066"/>
			<path fill="none" stroke="#FFFFFF" stroke-miterlimit="10" d="M746.947,151.194c0,0,0.509-0.756,0.781-1.047"/>
			<path fill="none" stroke="#FFFFFF" stroke-miterlimit="10" d="M745.66,150.322c0,0,0.542-0.839,0.854-1.19"/>
			<path fill="none" stroke="#FFFFFF" stroke-miterlimit="10" d="M744.461,149.382c0,0,0.458-0.875,0.702-1.056"/>
			<path fill="none" stroke="#FFFFFF" stroke-miterlimit="10" d="M743.046,148.513c0,0,0.642-0.861,0.855-1.063"/>
			<path fill="none" stroke="#FFFFFF" stroke-miterlimit="10" d="M741.805,147.735c0,0,0.381-0.625,0.736-1.011"/>
			<path fill="none" stroke="#FFFFFF" stroke-miterlimit="10" d="M740.685,146.934c0,0,0.118-0.544,0.591-0.98"/>
			<path fill="none" stroke="#FFFFFF" stroke-miterlimit="10" d="M739.521,146.036c0,0,0.41-0.735,0.545-0.944"/>
			<path fill="none" stroke="#FFFFFF" stroke-miterlimit="10" d="M738.623,145.304c0,0,0.28-0.617,0.465-0.837"/>
			<path fill="none" stroke="#FFFFFF" stroke-miterlimit="10" d="M737.737,144.635c0,0,0.337-0.654,0.612-0.933"/>
			<path fill="none" stroke="#FFFFFF" stroke-miterlimit="10" d="M736.693,143.946c0,0,0.394-0.692,0.586-0.876"/>
			<path fill="none" stroke="#FFFFFF" stroke-miterlimit="10" d="M735.822,143.188c0,0,0.379-0.76,0.592-0.845"/>
			<path fill="none" stroke="#FFFFFF" stroke-miterlimit="10" d="M734.909,142.602c0,0,0.38-0.76,0.676-0.997"/>
			<path fill="none" stroke="#FFFFFF" stroke-miterlimit="10" d="M733.477,141.834c0,0,0.435-0.624,0.739-0.883"/>
			<path fill="none" stroke="#FFFFFF" stroke-miterlimit="10" d="M732.57,141c0,0,0.378-0.521,0.658-0.774"/>
			<path fill="none" stroke="#FFFFFF" stroke-miterlimit="10" d="M731.502,140.225c0,0,0.538-0.735,0.816-0.97"/>
			<path fill="none" stroke="#FFFFFF" stroke-miterlimit="10" d="M730.501,139.676c0,0,0.521-1.18,0.794-1.256"/>
			<path fill="none" stroke="#FFFFFF" stroke-miterlimit="10" d="M729.486,138.702c0,0,0.316-0.785,0.506-0.98"/>
			<path fill="none" stroke="#FFFFFF" stroke-miterlimit="10" d="M728.42,137.936c0,0,0.231-0.555,0.486-0.803"/>
		</g>
		<path fill="none" stroke="#FFFFFF" stroke-miterlimit="10" d="M758.456,158.736c0,0,5.322-0.938,4.559-7.989"/>
		<path fill="none" stroke="#FFFFFF" stroke-miterlimit="10" d="M758.404,157.761c0,0,4.327-1.403,3.707-6.669"/>
		<path fill="none" stroke="#FFFFFF" stroke-miterlimit="10" d="M758.214,156.945c0,0,3.001-1.39,3.213-5.327"/>
		<path fill="none" stroke="#FFFFFF" stroke-miterlimit="10" d="M758.439,155.634c0,0,1.763-0.954,2.085-3.357"/>
	</g>
	<g>
		<path fill="none" stroke="#FFFFFF" stroke-miterlimit="10" d="M703.483,156.978c0,0-11.076-5.607-19.253,3.014
			c0,0-7.452,7.703-0.302,17.637c0,0,7.086,9.798,20.153,3.335"/>
		<path fill="none" stroke="#FFFFFF" stroke-miterlimit="10" d="M693.453,156.455c0,0-5.718,1.321-8.987,7.19
			c-2.262,4.058-1.624,13.104,5.218,16.641c0,0,9.566,4.812,16.814-0.869c0,0,8.189-7.38,2.319-16.932
			C707.367,160.128,703.831,153.672,693.453,156.455z"/>
		<path fill="none" stroke="#FFFFFF" stroke-miterlimit="10" d="M689.758,166.279c0,0-3.448-2.267-3.927-0.096
			c0,0-1.66,6.799,2.234,5.619c0,0,4.73-1.544,4.47-3.065C692.37,167.777,692.184,167.811,689.758,166.279z"/>
		<path fill="none" stroke="#FFFFFF" stroke-miterlimit="10" d="M690.907,160.011c0,0-3.607,1.748-0.862,3.375
			c0,0,2.497,2.035,4.828,2.035c0,0,0.99,0.063,1.31-1.532c0,0,1.724-6.862-2.555-5.234L690.907,160.011z"/>
		<path fill="none" stroke="#FFFFFF" stroke-miterlimit="10" d="M702.217,159.175c-0.51-0.352-2.929-1.309-3.057,1.66
			c0,0-0.829,6.226,2.203,5.044c0,0,5.705-2.219,3.535-4.262C704.898,161.617,703.006,159.72,702.217,159.175z"/>
		<path fill="none" stroke="#FFFFFF" stroke-miterlimit="10" d="M703.262,168.039c0,0-2.234,1.055-2.139,2.044
			c0,0-0.287,1.499,1.278,2.202c0,0,4.468,2.907,5.17,1.149c0,0,0.989-1.469,0.702-4.31c0,0-0.254-2.936-2.074-2.521
			L703.262,168.039z"/>
		<path fill="none" stroke="#FFFFFF" stroke-miterlimit="10" d="M702.093,175.123c0,0-3.894-3.4-4.325,0.335
			c0,0-0.512,5.108,2.051,4.557c0,0,5.993-1.764,4.309-3.256L702.093,175.123z"/>
		<path fill="none" stroke="#FFFFFF" stroke-miterlimit="10" d="M695.463,175.378c0,0,0.096-1.597-0.463-2.123
			c0,0-0.846-1.038-3.049,0.207c0,0-4.27,2.147-2.753,3.521c0,0,2.331,2.186,4.31,2.298c0,0,1.221,0.215,1.604-1.222
			C695.112,178.059,695.479,175.554,695.463,175.378z"/>
		<path fill="none" stroke="#FFFFFF" stroke-miterlimit="10" d="M697.05,168.04c0,0-1.546-0.318-1.8,1.258
			c0,0-0.495,2.008,1.974,1.881c0,0,2.071-0.271,1.354-2.294C698.442,168.502,698.132,168.072,697.05,168.04z"/>
		<path fill="none" stroke="#FFFFFF" stroke-miterlimit="10" d="M691.029,167.569c0,0,0.035,1.079-0.601,1.659
			c-0.929,0.847-2.74,1.682-4.526,1.161"/>
		<path fill="none" stroke="#FFFFFF" stroke-miterlimit="10" d="M694.591,158.795c0,0,0.919,2.672,0.277,4.302
			c-0.232,0.591-1.283,1.907-3.745,0.728"/>
		<path fill="none" stroke="#FFFFFF" stroke-miterlimit="10" d="M699.431,164.312c0,0,1.132,1.007,3.213-0.38
			c0,0,2.045-1.29,1.108-3.162"/>
		<path fill="none" stroke="#FFFFFF" stroke-miterlimit="10" d="M701.428,170.234c0,0,3.498,2.334,4.157,2.299
			c0,0,2.428,0.174,0.416-5.411"/>
		<path fill="none" stroke="#FFFFFF" stroke-miterlimit="10" d="M698.036,177.452c0,0,0.697,1.225,2.11,0.979
			c0,0,3.744-0.88,2.425-2.613"/>
		<path fill="none" stroke="#FFFFFF" stroke-miterlimit="10" d="M690.197,175.003c0,0-0.188,1.055,0.527,1.602
			c0,0,3.298,2.656,4.391-0.434"/>
		
			<path fill="none" stroke="#FFFFFF" stroke-linecap="round" stroke-linejoin="round" stroke-miterlimit="10" stroke-dasharray="0.5,2" d="
			M684.394,170.253c0,0,0.754,5.466,5.126,8.594c0,0,7.122,3.994,14.32,1.055"/>
		<line fill="none" stroke="#FFFFFF" stroke-miterlimit="10" x1="691.064" y1="168.576" x2="691.535" y2="169.16"/>
		<line fill="none" stroke="#FFFFFF" stroke-miterlimit="10" x1="690.537" y1="169.292" x2="690.838" y2="169.65"/>
		<line fill="none" stroke="#FFFFFF" stroke-miterlimit="10" x1="687.767" y1="170.573" x2="688.068" y2="171.045"/>
		<line fill="none" stroke="#FFFFFF" stroke-miterlimit="10" x1="702.358" y1="177.401" x2="702.822" y2="177.904"/>
		<line fill="none" stroke="#FFFFFF" stroke-miterlimit="10" x1="699.983" y1="178.545" x2="700.335" y2="179.048"/>
		<path fill="none" stroke="#FFFFFF" stroke-miterlimit="10" d="M700.838,178.294c0.037,0.025,0.264,0.401,0.264,0.401"/>
		<path fill="none" stroke="#FFFFFF" stroke-miterlimit="10" d="M697.459,168.356c0,0,0.653,2.513-1.885,1.407"/>
		<line fill="none" stroke="#FFFFFF" stroke-miterlimit="10" x1="697.603" y1="169.48" x2="698.055" y2="169.782"/>
		<line fill="none" stroke="#FFFFFF" stroke-miterlimit="10" x1="697.227" y1="169.839" x2="697.66" y2="170.241"/>
		<line fill="none" stroke="#FFFFFF" stroke-miterlimit="10" x1="706.61" y1="168.369" x2="707.251" y2="168.689"/>
		<line fill="none" stroke="#FFFFFF" stroke-miterlimit="10" x1="706.723" y1="169.217" x2="707.364" y2="169.575"/>
		<line fill="none" stroke="#FFFFFF" stroke-miterlimit="10" x1="706.554" y1="171.963" x2="707.082" y2="172.302"/>
	</g>
	<g>
		<path fill="none" stroke="#FFFFFF" stroke-miterlimit="10" d="M830.163,24.178c0,0-11.076-5.607-19.252,3.014
			c0,0-7.453,7.703-0.302,17.637c0,0,7.085,9.798,20.153,3.335"/>
		<path fill="none" stroke="#FFFFFF" stroke-miterlimit="10" d="M820.133,23.655c0,0-5.717,1.321-8.986,7.19
			c-2.263,4.059-1.624,13.104,5.218,16.641c0,0,9.566,4.812,16.813-0.869c0,0,8.19-7.38,2.32-16.932
			C834.048,27.328,830.511,20.873,820.133,23.655z"/>
		<path fill="none" stroke="#FFFFFF" stroke-miterlimit="10" d="M816.438,33.479c0,0-3.447-2.267-3.926-0.096
			c0,0-1.66,6.799,2.233,5.619c0,0,4.731-1.543,4.471-3.065C819.051,34.979,818.864,35.011,816.438,33.479z"/>
		<path fill="none" stroke="#FFFFFF" stroke-miterlimit="10" d="M817.587,27.211c0,0-3.607,1.748-0.861,3.375
			c0,0,2.497,2.035,4.828,2.035c0,0,0.99,0.063,1.31-1.532c0,0,1.724-6.862-2.555-5.234L817.587,27.211z"/>
		<path fill="none" stroke="#FFFFFF" stroke-miterlimit="10" d="M828.896,26.375c-0.51-0.352-2.928-1.309-3.056,1.66
			c0,0-0.83,6.226,2.203,5.044c0,0,5.705-2.219,3.534-4.262C831.578,28.817,829.686,26.92,828.896,26.375z"/>
		<path fill="none" stroke="#FFFFFF" stroke-miterlimit="10" d="M829.942,35.239c0,0-2.234,1.055-2.139,2.044
			c0,0-0.288,1.499,1.277,2.202c0,0,4.469,2.907,5.171,1.149c0,0,0.989-1.468,0.702-4.31c0,0-0.255-2.936-2.074-2.521
			L829.942,35.239z"/>
		<path fill="none" stroke="#FFFFFF" stroke-miterlimit="10" d="M828.773,42.323c0,0-3.895-3.4-4.326,0.335
			c0,0-0.511,5.108,2.051,4.557c0,0,5.994-1.764,4.31-3.256L828.773,42.323z"/>
		<path fill="none" stroke="#FFFFFF" stroke-miterlimit="10" d="M822.144,42.578c0,0,0.095-1.597-0.463-2.123
			c0,0-0.846-1.038-3.049,0.207c0,0-4.27,2.147-2.754,3.521c0,0,2.331,2.186,4.311,2.298c0,0,1.22,0.215,1.604-1.222
			C821.792,45.259,822.159,42.754,822.144,42.578z"/>
		<path fill="none" stroke="#FFFFFF" stroke-miterlimit="10" d="M823.729,35.24c0,0-1.545-0.318-1.8,1.258
			c0,0-0.494,2.008,1.975,1.881c0,0,2.07-0.271,1.354-2.294C825.122,35.702,824.812,35.272,823.729,35.24z"/>
		<path fill="none" stroke="#FFFFFF" stroke-miterlimit="10" d="M817.71,34.77c0,0,0.034,1.079-0.602,1.659
			c-0.928,0.847-2.74,1.682-4.525,1.161"/>
		<path fill="none" stroke="#FFFFFF" stroke-miterlimit="10" d="M821.271,25.996c0,0,0.919,2.671,0.277,4.301
			c-0.233,0.591-1.283,1.907-3.746,0.728"/>
		<path fill="none" stroke="#FFFFFF" stroke-miterlimit="10" d="M826.111,31.512c0,0,1.132,1.007,3.213-0.38
			c0,0,2.045-1.29,1.108-3.162"/>
		<path fill="none" stroke="#FFFFFF" stroke-miterlimit="10" d="M828.108,37.435c0,0,3.498,2.334,4.156,2.299
			c0,0,2.429,0.174,0.417-5.411"/>
		<path fill="none" stroke="#FFFFFF" stroke-miterlimit="10" d="M824.717,44.652c0,0,0.697,1.225,2.11,0.979
			c0,0,3.743-0.879,2.424-2.613"/>
		<path fill="none" stroke="#FFFFFF" stroke-miterlimit="10" d="M816.878,42.203c0,0-0.188,1.055,0.527,1.602
			c0,0,3.298,2.656,4.391-0.434"/>
		
			<path fill="none" stroke="#FFFFFF" stroke-linecap="round" stroke-linejoin="round" stroke-miterlimit="10" stroke-dasharray="0.5,2" d="
			M811.074,37.454c0,0,0.754,5.465,5.125,8.593c0,0,7.123,3.995,14.321,1.056"/>
		<line fill="none" stroke="#FFFFFF" stroke-miterlimit="10" x1="817.744" y1="35.776" x2="818.216" y2="36.36"/>
		<line fill="none" stroke="#FFFFFF" stroke-miterlimit="10" x1="817.217" y1="36.492" x2="817.519" y2="36.851"/>
		<line fill="none" stroke="#FFFFFF" stroke-miterlimit="10" x1="814.447" y1="37.774" x2="814.748" y2="38.245"/>
		<line fill="none" stroke="#FFFFFF" stroke-miterlimit="10" x1="829.038" y1="44.602" x2="829.503" y2="45.104"/>
		<line fill="none" stroke="#FFFFFF" stroke-miterlimit="10" x1="826.664" y1="45.745" x2="827.016" y2="46.248"/>
		<path fill="none" stroke="#FFFFFF" stroke-miterlimit="10" d="M827.518,45.494c0.038,0.025,0.264,0.402,0.264,0.402"/>
		<path fill="none" stroke="#FFFFFF" stroke-miterlimit="10" d="M824.139,35.557c0,0,0.654,2.513-1.884,1.407"/>
		<line fill="none" stroke="#FFFFFF" stroke-miterlimit="10" x1="824.283" y1="36.681" x2="824.735" y2="36.982"/>
		<line fill="none" stroke="#FFFFFF" stroke-miterlimit="10" x1="823.906" y1="37.039" x2="824.34" y2="37.441"/>
		<line fill="none" stroke="#FFFFFF" stroke-miterlimit="10" x1="833.29" y1="35.569" x2="833.931" y2="35.89"/>
		<line fill="none" stroke="#FFFFFF" stroke-miterlimit="10" x1="833.403" y1="36.417" x2="834.044" y2="36.775"/>
		<line fill="none" stroke="#FFFFFF" stroke-miterlimit="10" x1="833.234" y1="39.163" x2="833.762" y2="39.502"/>
	</g>
	<g>
		<g>
			<g>
				<path fill="none" d="M139.488,172.868"/>
			</g>
			<g>
				<g>
					<path fill="none" stroke="#FFFFFF" stroke-miterlimit="10" d="M130.977,158.292c-0.065-0.091,0.16-0.151,0.242-0.224
						c6.256-5.504,14.315,3.631,14.315,3.631S138.78,168.972,130.977,158.292z"/>
				</g>
			</g>
			<g>
				<g>
					<path fill="none" stroke="#FFFFFF" stroke-miterlimit="10" d="M129.407,159.625c-0.078-0.084-0.176,0.131-0.258,0.201
						c-6.447,5.275,1.254,14.715,1.254,14.715S138.676,169.059,129.407,159.625z"/>
				</g>
				<g>
					<line fill="none" stroke="#FFFFFF" stroke-miterlimit="10" x1="130.36" y1="175.997" x2="135.107" y2="189.055"/>
				</g>
			</g>
		</g>
		<g>
			<g>
				<path fill="none" d="M145.267,179.082"/>
			</g>
			<g>
				<g>
					<path fill="none" stroke="#FFFFFF" stroke-miterlimit="10" d="M138.457,167.424c-0.053-0.074,0.13-0.122,0.193-0.179
						c5.006-4.406,11.455,2.903,11.455,2.903S144.698,175.968,138.457,167.424z"/>
				</g>
			</g>
			<g>
				<g>
					<path fill="none" stroke="#FFFFFF" stroke-miterlimit="10" d="M137.203,168.488c-0.064-0.064-0.142,0.106-0.209,0.162
						c-5.157,4.221,1.004,11.773,1.004,11.773S144.616,176.035,137.203,168.488z"/>
				</g>
				<g>
					<line fill="none" stroke="#FFFFFF" stroke-miterlimit="10" x1="138.471" y1="182.627" x2="142.419" y2="192.175"/>
				</g>
			</g>
		</g>
		<g>
			<g>
				<g>
					<path fill="none" stroke="#FFFFFF" stroke-miterlimit="10" d="M144.577,174.889c-0.042-0.058,0.103-0.099,0.155-0.144
						c4.004-3.521,9.163,2.323,9.163,2.323S149.571,181.724,144.577,174.889z"/>
				</g>
			</g>
			<g>
				<g>
					<path fill="none" stroke="#FFFFFF" stroke-miterlimit="10" d="M143.573,175.74c-0.051-0.051-0.112,0.085-0.168,0.13
						c-4.125,3.377,0.805,9.418,0.805,9.418S149.504,181.776,143.573,175.74z"/>
				</g>
				<g>
					<line fill="none" stroke="#FFFFFF" stroke-miterlimit="10" x1="145.242" y1="187.172" x2="148.624" y2="194.354"/>
				</g>
			</g>
		</g>
		<g>
			<g>
				<path fill="none" d="M131.846,164.452"/>
			</g>
			<g>
				<g>
					<path fill="none" stroke="#FFFFFF" stroke-miterlimit="10" d="M121.632,146.963c-0.079-0.11,0.194-0.183,0.292-0.269
						c7.504-6.605,17.178,4.357,17.178,4.357S130.993,159.777,121.632,146.963z"/>
				</g>
			</g>
			<g>
				<g>
					<path fill="none" stroke="#FFFFFF" stroke-miterlimit="10" d="M119.749,148.56c-0.093-0.096-0.21,0.161-0.312,0.244
						c-7.738,6.331,1.507,17.659,1.507,17.659S130.87,159.881,119.749,148.56z"/>
				</g>
				<g>
					<line fill="none" stroke="#FFFFFF" stroke-miterlimit="10" x1="120.892" y1="168.209" x2="126.79" y2="184.554"/>
				</g>
			</g>
		</g>
		<g>
			<path fill="none" stroke="#FFFFFF" stroke-miterlimit="10" d="M148.634,180.732c-0.004-0.072,0.14-0.027,0.208-0.032
				c5.288-0.71,6.334,7.017,6.334,7.017S148.998,189.189,148.634,180.732z"/>
		</g>
		<g>
			<g>
				<path fill="none" d="M123.689,155.554"/>
			</g>
			<g>
				<g>
					<path fill="none" stroke="#FFFFFF" stroke-miterlimit="10" d="M111.435,134.562c-0.096-0.131,0.229-0.218,0.348-0.32
						c9.007-7.925,20.616,5.23,20.616,5.23S122.667,149.94,111.435,134.562z"/>
				</g>
			</g>
			<g>
				<g>
					<path fill="none" stroke="#FFFFFF" stroke-miterlimit="10" d="M109.173,136.48c-0.113-0.113-0.251,0.192-0.372,0.292
						c-9.284,7.598,1.808,21.189,1.808,21.189S122.521,150.066,109.173,136.48z"/>
				</g>
				<g>
					<line fill="none" stroke="#FFFFFF" stroke-miterlimit="10" x1="110.547" y1="160.059" x2="117.941" y2="181.157"/>
				</g>
			</g>
		</g>
		<g>
			<g>
				<path fill="none" d="M113.543,144.448"/>
			</g>
			<g>
				<g>
					<path fill="none" stroke="#FFFFFF" stroke-miterlimit="10" d="M98.836,119.262c-0.113-0.157,0.278-0.262,0.422-0.385
						c10.807-9.512,24.738,6.275,24.738,6.275S112.318,137.717,98.836,119.262z"/>
				</g>
			</g>
			<g>
				<g>
					<path fill="none" stroke="#FFFFFF" stroke-miterlimit="10" d="M96.126,121.562c-0.136-0.136-0.304,0.233-0.449,0.353
						c-11.142,9.117,2.168,25.429,2.168,25.429S112.141,137.864,96.126,121.562z"/>
				</g>
				<g>
					<line fill="none" stroke="#FFFFFF" stroke-miterlimit="10" x1="97.772" y1="149.859" x2="106.737" y2="175.434"/>
				</g>
			</g>
		</g>
		<g>
			<path fill="none" stroke="#FFFFFF" stroke-miterlimit="10" d="M94.743,118.178c0,0-38.224-35.81-63.93-98.926l4.487-0.357
				c8.617,36.868,61.309,98.02,61.309,98.02"/>
		</g>
		<path fill="none" stroke="#FFFFFF" stroke-miterlimit="10" d="M92.805,130.721c0,0,0.832-4.939,3.085-6.687
			c0,0,0.22-0.492,3.396,4.073"/>
		<path fill="none" stroke="#FFFFFF" stroke-miterlimit="10" d="M105.034,123.767c0,0-3.194-2.757-4.198-4.31
			c0,0,1.794-2.113,6.924-1.628"/>
		<path fill="none" stroke="#FFFFFF" stroke-miterlimit="10" d="M106.692,142.765c0,0,0.365-1.313,2.331-4.31
			c0,0,0.672,0.56,2.377,3.019"/>
		<path fill="none" stroke="#FFFFFF" stroke-miterlimit="10" d="M116.36,138.044c0,0-1.188-0.973-2.966-3.352
			c0,0,1.332-1.324,5.355-1.334"/>
		<path fill="none" stroke="#FFFFFF" stroke-miterlimit="10" d="M117.707,154.85c0,0,0.039-1.851,1.871-4.351
			c0,0,1.148,0.783,2.318,2.952"/>
		<path fill="none" stroke="#FFFFFF" stroke-miterlimit="10" d="M126.398,150.2c0,0-1.681-1.192-2.807-3.073
			c0,0,2.486-1.494,5.021-1.003"/>
		<path fill="none" stroke="#FFFFFF" stroke-miterlimit="10" d="M127.777,164.96c0,0,0.377-2.616,1.429-3.529
			c0,0,0.821,0.681,1.908,2.585"/>
		<path fill="none" stroke="#FFFFFF" stroke-miterlimit="10" d="M135.101,160.91c0,0-1.687-1.342-2.231-2.436
			c0,0,2.184-1.09,4.038-0.574"/>
		<path fill="none" stroke="#FFFFFF" stroke-miterlimit="10" d="M136.085,172.949c0,0,0.381-2.133,1.051-2.721
			c0,0,1.035,1.109,1.421,2.184"/>
		<path fill="none" stroke="#FFFFFF" stroke-miterlimit="10" d="M141.991,169.39c0,0-1.164-0.777-1.816-1.751
			c0,0,1.874-0.896,3.18-0.352"/>
		<path fill="none" stroke="#FFFFFF" stroke-miterlimit="10" d="M142.981,179.602c0,0-0.12-1.604,0.516-2.203
			c0,0,0.743,0.871,1.02,1.597"/>
		<path fill="none" stroke="#FFFFFF" stroke-miterlimit="10" d="M147.328,176.391c0,0-0.725-0.516-1.101-1.241
			c-0.005-0.011-0.009-0.021-0.014-0.029c0,0,1.523-0.551,2.203-0.198"/>
		<path fill="none" stroke="#FFFFFF" stroke-miterlimit="10" d="M150.162,183.423c0,0-0.287-0.884-0.255-1.534
			c0,0,1.07,0.332,1.436,0.752"/>
		
			<path fill="none" stroke="#FFFFFF" stroke-linecap="round" stroke-linejoin="round" stroke-miterlimit="10" stroke-dasharray="0.5,2" d="
			M92.866,131.413c0,0,0.037,3.384,0.937,5.385"/>
		
			<path fill="none" stroke="#FFFFFF" stroke-linecap="round" stroke-linejoin="round" stroke-miterlimit="10" stroke-dasharray="0.5,2" d="
			M99.676,128.773c0,0,1.954,2.891,2.108,4.803"/>
		
			<path fill="none" stroke="#FFFFFF" stroke-linecap="round" stroke-linejoin="round" stroke-miterlimit="10" stroke-dasharray="0.5,2" d="
			M105.479,124.259c0,0,2.652,1.739,4.3,2.18"/>
		
			<path fill="none" stroke="#FFFFFF" stroke-linecap="round" stroke-linejoin="round" stroke-miterlimit="10" stroke-dasharray="0.5,2" d="
			M108.858,117.765c0,0,2.665,0.563,4.758,1.903"/>
		
			<path fill="none" stroke="#FFFFFF" stroke-linecap="round" stroke-linejoin="round" stroke-miterlimit="10" stroke-dasharray="0.5,2" d="
			M107.019,148.146c0,0-0.912-2.915-0.293-4.631"/>
		
			<path fill="none" stroke="#FFFFFF" stroke-linecap="round" stroke-linejoin="round" stroke-miterlimit="10" stroke-dasharray="0.5,2" d="
			M111.833,142.071c0,0,1.253,2.072,2.021,3.816"/>
		
			<path fill="none" stroke="#FFFFFF" stroke-linecap="round" stroke-linejoin="round" stroke-miterlimit="10" stroke-dasharray="0.5,2" d="
			M116.849,138.522c0,0,2.348,2.008,3.932,2.013"/>
		
			<path fill="none" stroke="#FFFFFF" stroke-linecap="round" stroke-linejoin="round" stroke-miterlimit="10" stroke-dasharray="0.5,2" d="
			M119.508,133.476c0,0,2.79,0.361,4.548,1.626"/>
		
			<path fill="none" stroke="#FFFFFF" stroke-linecap="round" stroke-linejoin="round" stroke-miterlimit="10" stroke-dasharray="0.5,2" d="
			M118.769,159.739c0,0-1.174-2.547-1.09-4.281"/>
		
			<path fill="none" stroke="#FFFFFF" stroke-linecap="round" stroke-linejoin="round" stroke-miterlimit="10" stroke-dasharray="0.5,2" d="
			M122.201,154.424c0,0,1.136,2.19,1.265,3.799"/>
		
			<path fill="none" stroke="#FFFFFF" stroke-linecap="round" stroke-linejoin="round" stroke-miterlimit="10" stroke-dasharray="0.5,2" d="
			M127.223,150.665c0.09,0.239,1.88,1.186,3.657,1.39"/>
		
			<path fill="none" stroke="#FFFFFF" stroke-linecap="round" stroke-linejoin="round" stroke-miterlimit="10" stroke-dasharray="0.5,2" d="
			M129.104,146.344c0,0,3.338,1.442,4.153,2.149"/>
		
			<path fill="none" stroke="#FFFFFF" stroke-linecap="round" stroke-linejoin="round" stroke-miterlimit="10" stroke-dasharray="0.5,2" d="
			M128.543,168.518c0,0-0.538-1.496-0.782-2.931"/>
		
			<path fill="none" stroke="#FFFFFF" stroke-linecap="round" stroke-linejoin="round" stroke-miterlimit="10" stroke-dasharray="0.5,2" d="
			M131.334,164.527c0,0,1.082,1.319,0.993,2.509"/>
		
			<path fill="none" stroke="#FFFFFF" stroke-linecap="round" stroke-linejoin="round" stroke-miterlimit="10" stroke-dasharray="0.5,2" d="
			M135.508,161.13c0,0,1.996,1.309,3.127,1.422"/>
		
			<path fill="none" stroke="#FFFFFF" stroke-linecap="round" stroke-linejoin="round" stroke-miterlimit="10" stroke-dasharray="0.5,2" d="
			M137.654,158.03c0,0,1.675,0.38,2.87,1.282"/>
		
			<path fill="none" stroke="#FFFFFF" stroke-linecap="round" stroke-linejoin="round" stroke-miterlimit="10" stroke-dasharray="0.5,2" d="
			M136.608,175.58c0,0-0.574-1.565-0.511-2.202"/>
		
			<path fill="none" stroke="#FFFFFF" stroke-linecap="round" stroke-linejoin="round" stroke-miterlimit="10" stroke-dasharray="0.5,2" d="
			M138.838,172.815c0,0,0.59,1.406,0.589,1.866"/>
		
			<path fill="none" stroke="#FFFFFF" stroke-linecap="round" stroke-linejoin="round" stroke-miterlimit="10" stroke-dasharray="0.5,2" d="
			M142.399,169.592c0,0,1.263,0.97,2.174,0.952"/>
		
			<path fill="none" stroke="#FFFFFF" stroke-linecap="round" stroke-linejoin="round" stroke-miterlimit="10" stroke-dasharray="0.5,2" d="
			M143.813,167.42c0,0,1.278,0.275,2.161,0.855"/>
		
			<path fill="none" stroke="#FFFFFF" stroke-linecap="round" stroke-linejoin="round" stroke-miterlimit="10" stroke-dasharray="0.5,2" d="
			M143.732,182.213c-0.291-0.501-0.625-2.063-0.628-2.05"/>
		
			<path fill="none" stroke="#FFFFFF" stroke-linecap="round" stroke-linejoin="round" stroke-miterlimit="10" stroke-dasharray="0.5,2" d="
			M144.872,179.839c0,0,0.352,1.464,0.337,1.954"/>
		
			<path fill="none" stroke="#FFFFFF" stroke-linecap="round" stroke-linejoin="round" stroke-miterlimit="10" stroke-dasharray="0.5,2" d="
			M147.688,176.519c0,0,1.152,0.719,1.87,0.789"/>
		
			<path fill="none" stroke="#FFFFFF" stroke-linecap="round" stroke-linejoin="round" stroke-miterlimit="10" stroke-dasharray="0.5,2" d="
			M148.831,175.009c0,0,0.998,0.307,1.836,0.968"/>
		
			<path fill="none" stroke="#FFFFFF" stroke-linecap="round" stroke-linejoin="round" stroke-miterlimit="10" stroke-dasharray="0.5,2" d="
			M150.359,183.781c0,0,0.677,1.595,1.297,1.836"/>
		
			<path fill="none" stroke="#FFFFFF" stroke-linecap="round" stroke-linejoin="round" stroke-miterlimit="10" stroke-dasharray="0.5,2" d="
			M151.71,182.959c0,0,1.083,1.096,1.433,1.97"/>
		<g>
			<line fill="none" stroke="#FFFFFF" stroke-miterlimit="10" x1="147.914" y1="161.85" x2="160.286" y2="168.174"/>
		</g>
		<g>
			<line fill="none" stroke="#FFFFFF" stroke-miterlimit="10" x1="153.495" y1="170.717" x2="162.477" y2="175.812"/>
		</g>
		<g>
			<line fill="none" stroke="#FFFFFF" stroke-miterlimit="10" x1="157.167" y1="177.998" x2="163.877" y2="182.239"/>
		</g>
		<g>
			<line fill="none" stroke="#FFFFFF" stroke-miterlimit="10" x1="141.355" y1="151.492" x2="156.848" y2="159.365"/>
		</g>
		<g>
			<line fill="none" stroke="#FFFFFF" stroke-miterlimit="10" x1="134.548" y1="140.218" x2="154.57" y2="150.162"/>
		</g>
		<g>
			<line fill="none" stroke="#FFFFFF" stroke-miterlimit="10" x1="126.003" y1="126.282" x2="150.273" y2="138.338"/>
		</g>
		<path fill="none" stroke="#FFFFFF" stroke-miterlimit="10" d="M158.555,113.974c0,0-89.679-35.017-135.762-85.106l2.817-3.659
			c35.536,42.426,134.055,85.619,134.055,85.619"/>
		<path fill="none" stroke="#FFFFFF" stroke-miterlimit="10" d="M71.426,57.005c0,0,43.521-1.707,44.214-6.22
			c0.759-4.933-0.424-7.466-0.424-7.466L71.426,57.005"/>
		<path fill="none" stroke="#FFFFFF" stroke-miterlimit="10" d="M114.077,52.392c0,0-14.883-14.409-18.951-14.892
			c-3.491-0.415,19.87,1.487,21.635,7.139c1.922,6.155,1.183,6.114-2.512,7.434"/>
		<line fill="none" stroke="#FFFFFF" stroke-miterlimit="10" x1="84.401" y1="54.154" x2="86.018" y2="55.026"/>
		<line fill="none" stroke="#FFFFFF" stroke-miterlimit="10" x1="85.657" y1="53.748" x2="87.641" y2="54.973"/>
		<line fill="none" stroke="#FFFFFF" stroke-miterlimit="10" x1="86.701" y1="53.261" x2="89.354" y2="54.81"/>
		<line fill="none" stroke="#FFFFFF" stroke-miterlimit="10" x1="106.505" y1="47.546" x2="111.282" y2="51.631"/>
		<line fill="none" stroke="#FFFFFF" stroke-miterlimit="10" x1="105.042" y1="47.862" x2="109.924" y2="51.973"/>
		<line fill="none" stroke="#FFFFFF" stroke-miterlimit="10" x1="103.9" y1="48.346" x2="108.484" y2="52.266"/>
		<line fill="none" stroke="#FFFFFF" stroke-miterlimit="10" x1="102.659" y1="48.623" x2="107.009" y2="52.426"/>
		<g>
			<g>
				<path fill="none" d="M222.766,140.038"/>
			</g>
			<g>
				<g>
					<path fill="none" stroke="#FFFFFF" stroke-miterlimit="10" d="M208.481,131.045c-0.101-0.052,0.073-0.21,0.114-0.312
						c3.003-7.772,14.373-3.394,14.373-3.394S220.334,136.909,208.481,131.045z"/>
				</g>
			</g>
			<g>
				<g>
					<path fill="none" stroke="#FFFFFF" stroke-miterlimit="10" d="M207.706,132.946c-0.108-0.031-0.096,0.203-0.138,0.302
						c-3.281,7.659,7.913,12.472,7.913,12.472S220.284,137.034,207.706,132.946z"/>
				</g>
				<g>
					<line fill="none" stroke="#FFFFFF" stroke-miterlimit="10" x1="216.115" y1="147.028" x2="226.357" y2="156.419"/>
				</g>
			</g>
		</g>
		<g>
			<g>
				<path fill="none" d="M230.76,142.881"/>
			</g>
			<g>
				<g>
					<path fill="none" stroke="#FFFFFF" stroke-miterlimit="10" d="M219.335,135.685c-0.082-0.038,0.056-0.168,0.089-0.246
						c2.402-6.218,11.499-2.716,11.499-2.716S228.816,140.379,219.335,135.685z"/>
				</g>
			</g>
			<g>
				<g>
					<path fill="none" stroke="#FFFFFF" stroke-miterlimit="10" d="M218.712,137.209c-0.085-0.027-0.076,0.159-0.108,0.24
						c-2.625,6.127,6.329,9.979,6.329,9.979S228.776,140.478,218.712,137.209z"/>
				</g>
				<g>
					<line fill="none" stroke="#FFFFFF" stroke-miterlimit="10" x1="226.371" y1="149.165" x2="234.283" y2="155.806"/>
				</g>
			</g>
		</g>
		<g>
			<g>
				<g>
					<path fill="none" stroke="#FFFFFF" stroke-miterlimit="10" d="M228.211,139.48c-0.063-0.033,0.045-0.135,0.072-0.2
						c1.923-4.976,9.199-2.172,9.199-2.172S235.798,143.232,228.211,139.48z"/>
				</g>
			</g>
			<g>
				<g>
					<path fill="none" stroke="#FFFFFF" stroke-miterlimit="10" d="M227.714,140.698c-0.067-0.021-0.059,0.128-0.087,0.193
						c-2.099,4.901,5.065,7.979,5.065,7.979S235.766,143.312,227.714,140.698z"/>
				</g>
				<g>
					<line fill="none" stroke="#FFFFFF" stroke-miterlimit="10" x1="234.478" y1="150.066" x2="240.794" y2="154.87"/>
				</g>
			</g>
		</g>
		<g>
			<g>
				<path fill="none" d="M212.098,136.106"/>
			</g>
			<g>
				<g>
					<path fill="none" stroke="#FFFFFF" stroke-miterlimit="10" d="M194.96,125.312c-0.121-0.059,0.087-0.25,0.136-0.371
						c3.603-9.326,17.246-4.072,17.246-4.072S209.182,132.354,194.96,125.312z"/>
				</g>
			</g>
			<g>
				<g>
					<path fill="none" stroke="#FFFFFF" stroke-miterlimit="10" d="M194.026,127.601c-0.125-0.041-0.112,0.238-0.162,0.359
						c-3.938,9.19,9.492,14.965,9.492,14.965S209.122,132.501,194.026,127.601z"/>
				</g>
				<g>
					<line fill="none" stroke="#FFFFFF" stroke-miterlimit="10" x1="204.119" y1="144.497" x2="216.903" y2="156.269"/>
				</g>
			</g>
		</g>
		<g>
			<path fill="none" stroke="#FFFFFF" stroke-miterlimit="10" d="M234.508,142.789c-0.035-0.063,0.114-0.088,0.171-0.125
				c4.359-3.073,8.858,3.296,8.858,3.296S238.739,150.12,234.508,142.789z"/>
		</g>
		<g>
			<g>
				<path fill="none" d="M200.752,131.98"/>
			</g>
			<g>
				<g>
					<path fill="none" stroke="#FFFFFF" stroke-miterlimit="10" d="M180.186,119.027c-0.144-0.072,0.104-0.302,0.161-0.445
						c4.326-11.191,20.7-4.886,20.7-4.886S197.253,127.477,180.186,119.027z"/>
				</g>
			</g>
			<g>
				<g>
					<path fill="none" stroke="#FFFFFF" stroke-miterlimit="10" d="M179.067,121.772c-0.153-0.048-0.135,0.287-0.196,0.433
						c-4.722,11.026,11.394,17.96,11.394,17.96S197.181,127.655,179.067,121.772z"/>
				</g>
				<g>
					<line fill="none" stroke="#FFFFFF" stroke-miterlimit="10" x1="191.18" y1="142.05" x2="207.485" y2="157.346"/>
				</g>
			</g>
		</g>
		<g>
			<g>
				<path fill="none" d="M186.625,126.822"/>
			</g>
			<g>
				<g>
					<path fill="none" stroke="#FFFFFF" stroke-miterlimit="10" d="M161.945,111.277c-0.172-0.085,0.126-0.359,0.195-0.536
						c5.19-13.429,24.838-5.864,24.838-5.864S182.429,121.416,161.945,111.277z"/>
				</g>
			</g>
			<g>
				<g>
					<path fill="none" stroke="#FFFFFF" stroke-miterlimit="10" d="M160.603,114.571c-0.182-0.059-0.161,0.347-0.233,0.521
						c-5.669,13.232,13.669,21.549,13.669,21.549S182.339,121.63,160.603,114.571z"/>
				</g>
				<g>
					<line fill="none" stroke="#FFFFFF" stroke-miterlimit="10" x1="175.139" y1="138.905" x2="194.904" y2="157.444"/>
				</g>
			</g>
		</g>
		<path fill="none" stroke="#FFFFFF" stroke-miterlimit="10" d="M161.892,124.229c0,0-1.547-4.767-0.353-7.357
			c0,0-0.034-0.538,4.89,2.045"/>
		<path fill="none" stroke="#FFFFFF" stroke-miterlimit="10" d="M169.522,112.41c0,0-4.106-0.97-5.713-1.884
			c0,0,0.613-2.702,5.387-4.643"/>
		<path fill="none" stroke="#FFFFFF" stroke-miterlimit="10" d="M179.771,128.49c0,0-0.284-1.332,0.076-4.896
			c0,0,0.855,0.185,3.503,1.577"/>
		<path fill="none" stroke="#FFFFFF" stroke-miterlimit="10" d="M186.166,119.84c0,0-1.504-0.313-4.179-1.604
			c0,0,0.567-1.788,4.131-3.656"/>
		<path fill="none" stroke="#FFFFFF" stroke-miterlimit="10" d="M195.122,134.122c0,0-0.819-1.66-0.35-4.726
			c0,0,1.382,0.165,3.421,1.549"/>
		<path fill="none" stroke="#FFFFFF" stroke-miterlimit="10" d="M200.684,125.983c0,0-2.043-0.281-3.912-1.431
			c0,0,1.516-2.476,3.993-3.208"/>
		<path fill="none" stroke="#FFFFFF" stroke-miterlimit="10" d="M208.726,138.435c0,0-0.876-2.493-0.364-3.789
			c0,0,1.044,0.223,2.886,1.411"/>
		<path fill="none" stroke="#FFFFFF" stroke-miterlimit="10" d="M213.349,131.46c0,0-2.118-0.414-3.104-1.128
			c0,0,1.431-1.977,3.315-2.376"/>
		<path fill="none" stroke="#FFFFFF" stroke-miterlimit="10" d="M219.784,141.683c0,0-0.646-2.068-0.326-2.898
			c0,0,1.431,0.504,2.27,1.281"/>
		<path fill="none" stroke="#FFFFFF" stroke-miterlimit="10" d="M223.377,135.798c0,0-1.392-0.151-2.422-0.715
			c0,0,1.25-1.658,2.661-1.778"/>
		<path fill="none" stroke="#FFFFFF" stroke-miterlimit="10" d="M228.973,144.396c0,0-0.846-1.364-0.56-2.192
			c0,0,1.061,0.432,1.644,0.947"/>
		<path fill="none" stroke="#FFFFFF" stroke-miterlimit="10" d="M231.347,139.541c0,0-0.884-0.122-1.552-0.595
			c-0.009-0.007-0.018-0.012-0.027-0.019c0,0,1.098-1.191,1.864-1.192"/>
		<path fill="none" stroke="#FFFFFF" stroke-miterlimit="10" d="M237.107,144.468c0,0-0.662-0.65-0.935-1.243
			c0,0,1.101-0.2,1.619,0.003"/>
		
			<path fill="none" stroke="#FFFFFF" stroke-linecap="round" stroke-linejoin="round" stroke-miterlimit="10" stroke-dasharray="0.5,2" d="
			M162.265,124.812c0,0,1.596,2.986,3.32,4.344"/>
		
			<path fill="none" stroke="#FFFFFF" stroke-linecap="round" stroke-linejoin="round" stroke-miterlimit="10" stroke-dasharray="0.5,2" d="
			M167.084,119.325c0,0,3.068,1.66,4.088,3.286"/>
		
			<path fill="none" stroke="#FFFFFF" stroke-linecap="round" stroke-linejoin="round" stroke-miterlimit="10" stroke-dasharray="0.5,2" d="
			M170.145,112.642c0,0,3.156,0.316,4.822-0.056"/>
		
			<path fill="none" stroke="#FFFFFF" stroke-linecap="round" stroke-linejoin="round" stroke-miterlimit="10" stroke-dasharray="0.5,2" d="
			M170.142,105.321c0,0,2.622-0.732,5.097-0.511"/>
		
			<path fill="none" stroke="#FFFFFF" stroke-linecap="round" stroke-linejoin="round" stroke-miterlimit="10" stroke-dasharray="0.5,2" d="
			M182.546,133.114c0,0-2.157-2.163-2.4-3.971"/>
		
			<path fill="none" stroke="#FFFFFF" stroke-linecap="round" stroke-linejoin="round" stroke-miterlimit="10" stroke-dasharray="0.5,2" d="
			M184.009,125.503c0,0,2.067,1.259,3.556,2.45"/>
		
			<path fill="none" stroke="#FFFFFF" stroke-linecap="round" stroke-linejoin="round" stroke-miterlimit="10" stroke-dasharray="0.5,2" d="
			M186.817,120.038c0,0,3.011,0.694,4.417-0.03"/>
		
			<path fill="none" stroke="#FFFFFF" stroke-linecap="round" stroke-linejoin="round" stroke-miterlimit="10" stroke-dasharray="0.5,2" d="
			M186.844,114.334c0,0,2.641-0.969,4.785-0.66"/>
		
			<path fill="none" stroke="#FFFFFF" stroke-linecap="round" stroke-linejoin="round" stroke-miterlimit="10" stroke-dasharray="0.5,2" d="
			M198.324,137.965c0,0-2.219-1.715-2.944-3.291"/>
		
			<path fill="none" stroke="#FFFFFF" stroke-linecap="round" stroke-linejoin="round" stroke-miterlimit="10" stroke-dasharray="0.5,2" d="
			M198.91,131.666c0,0,2.02,1.42,2.88,2.785"/>
		
			<path fill="none" stroke="#FFFFFF" stroke-linecap="round" stroke-linejoin="round" stroke-miterlimit="10" stroke-dasharray="0.5,2" d="
			M201.63,126.016c0.19,0.166,2.213,0.181,3.885-0.46"/>
		
			<path fill="none" stroke="#FFFFFF" stroke-linecap="round" stroke-linejoin="round" stroke-miterlimit="10" stroke-dasharray="0.5,2" d="
			M201.3,121.313c0,0,3.628-0.265,4.678-0.014"/>
		
			<path fill="none" stroke="#FFFFFF" stroke-linecap="round" stroke-linejoin="round" stroke-miterlimit="10" stroke-dasharray="0.5,2" d="
			M211.048,141.237c0,0-1.167-1.077-2.048-2.237"/>
		
			<path fill="none" stroke="#FFFFFF" stroke-linecap="round" stroke-linejoin="round" stroke-miterlimit="10" stroke-dasharray="0.5,2" d="
			M211.681,136.408c0,0,1.569,0.671,2.039,1.766"/>
		
			<path fill="none" stroke="#FFFFFF" stroke-linecap="round" stroke-linejoin="round" stroke-miterlimit="10" stroke-dasharray="0.5,2" d="
			M213.81,131.467c0,0,2.377,0.239,3.431-0.187"/>
		
			<path fill="none" stroke="#FFFFFF" stroke-linecap="round" stroke-linejoin="round" stroke-miterlimit="10" stroke-dasharray="0.5,2" d="
			M214.283,127.727c0,0,1.66-0.438,3.136-0.189"/>
		
			<path fill="none" stroke="#FFFFFF" stroke-linecap="round" stroke-linejoin="round" stroke-miterlimit="10" stroke-dasharray="0.5,2" d="
			M221.462,143.773c0,0-1.231-1.122-1.469-1.715"/>
		
			<path fill="none" stroke="#FFFFFF" stroke-linecap="round" stroke-linejoin="round" stroke-miterlimit="10" stroke-dasharray="0.5,2" d="
			M222.163,140.29c0,0,1.173,0.977,1.382,1.384"/>
		
			<path fill="none" stroke="#FFFFFF" stroke-linecap="round" stroke-linejoin="round" stroke-miterlimit="10" stroke-dasharray="0.5,2" d="
			M223.834,135.788c0,0,1.567,0.276,2.367-0.16"/>
		
			<path fill="none" stroke="#FFFFFF" stroke-linecap="round" stroke-linejoin="round" stroke-miterlimit="10" stroke-dasharray="0.5,2" d="
			M224.082,133.209c0,0,1.261-0.346,2.316-0.242"/>
		
			<path fill="none" stroke="#FFFFFF" stroke-linecap="round" stroke-linejoin="round" stroke-miterlimit="10" stroke-dasharray="0.5,2" d="
			M230.846,146.364c-0.491-0.31-1.508-1.539-1.504-1.527"/>
		
			<path fill="none" stroke="#FFFFFF" stroke-linecap="round" stroke-linejoin="round" stroke-miterlimit="10" stroke-dasharray="0.5,2" d="
			M230.758,143.732c0,0,0.991,1.136,1.203,1.578"/>
		
			<path fill="none" stroke="#FFFFFF" stroke-linecap="round" stroke-linejoin="round" stroke-miterlimit="10" stroke-dasharray="0.5,2" d="
			M231.723,139.487c0,0,1.354,0.104,2.021-0.164"/>
		
			<path fill="none" stroke="#FFFFFF" stroke-linecap="round" stroke-linejoin="round" stroke-miterlimit="10" stroke-dasharray="0.5,2" d="
			M232.04,137.62c0,0,1.026-0.188,2.075,0.01"/>
		
			<path fill="none" stroke="#FFFFFF" stroke-linecap="round" stroke-linejoin="round" stroke-miterlimit="10" stroke-dasharray="0.5,2" d="
			M237.449,144.696c0,0,1.336,1.098,1.996,1.025"/>
		
			<path fill="none" stroke="#FFFFFF" stroke-linecap="round" stroke-linejoin="round" stroke-miterlimit="10" stroke-dasharray="0.5,2" d="
			M238.267,143.341c0,0,1.467,0.472,2.179,1.083"/>
		<g>
			<line fill="none" stroke="#FFFFFF" stroke-miterlimit="10" x1="225.145" y1="126.373" x2="239.041" y2="126.265"/>
		</g>
		<g>
			<line fill="none" stroke="#FFFFFF" stroke-miterlimit="10" x1="234.192" y1="131.658" x2="244.515" y2="132.028"/>
		</g>
		<g>
			<line fill="none" stroke="#FFFFFF" stroke-miterlimit="10" x1="240.814" y1="136.42" x2="248.722" y2="137.082"/>
		</g>
		<g>
			<line fill="none" stroke="#FFFFFF" stroke-miterlimit="10" x1="214.544" y1="120.217" x2="231.921" y2="120.042"/>
		</g>
		<g>
			<line fill="none" stroke="#FFFFFF" stroke-miterlimit="10" x1="203.297" y1="113.365" x2="225.648" y2="112.932"/>
		</g>
		<g>
			<line fill="none" stroke="#FFFFFF" stroke-miterlimit="10" x1="189.281" y1="104.953" x2="216.376" y2="104.432"/>
		</g>
		<path fill="none" stroke="#FFFFFF" stroke-miterlimit="10" d="M137.215,71.379c0,0-64.554,4.063-123.575-29.834l1.583-4.338
			c46.659,29.766,122.104,30.839,122.104,30.839"/>
		<g>
			<g>
				<path fill="none" d="M206.384,59.936"/>
			</g>
			<g>
				<g>
					<path fill="none" stroke="#FFFFFF" stroke-miterlimit="10" d="M189.506,59.998c-0.112,0.012-0.053-0.215-0.072-0.321
						c-1.63-8.17,10.315-10.568,10.315-10.568S202.656,58.598,189.506,59.998z"/>
				</g>
			</g>
			<g>
				<g>
					<path fill="none" stroke="#FFFFFF" stroke-miterlimit="10" d="M189.871,62.024c-0.108,0.026,0.028,0.218,0.046,0.325
						c1.336,8.225,13.365,6.287,13.365,6.287S202.68,58.729,189.871,62.024z"/>
				</g>
				<g>
					<line fill="none" stroke="#FFFFFF" stroke-miterlimit="10" x1="204.518" y1="69.402" x2="218.197" y2="71.839"/>
				</g>
			</g>
		</g>
		<g>
			<g>
				<path fill="none" d="M214.658,58.051"/>
			</g>
			<g>
				<g>
					<path fill="none" stroke="#FFFFFF" stroke-miterlimit="10" d="M201.156,58.102c-0.09,0.007-0.042-0.174-0.056-0.26
						c-1.305-6.534,8.251-8.456,8.251-8.456S211.677,56.981,201.156,58.102z"/>
				</g>
			</g>
			<g>
				<g>
					<path fill="none" stroke="#FFFFFF" stroke-miterlimit="10" d="M201.449,59.722c-0.088,0.021,0.021,0.173,0.038,0.261
						c1.067,6.578,10.69,5.031,10.69,5.031S211.696,57.086,201.449,59.722z"/>
				</g>
				<g>
					<line fill="none" stroke="#FFFFFF" stroke-miterlimit="10" x1="214.321" y1="65.707" x2="224.558" y2="67.074"/>
				</g>
			</g>
		</g>
		<g>
			<g>
				<g>
					<path fill="none" stroke="#FFFFFF" stroke-miterlimit="10" d="M210.684,56.546c-0.073,0.007-0.033-0.14-0.046-0.208
						c-1.041-5.23,6.603-6.762,6.603-6.762S219.1,55.648,210.684,56.546z"/>
				</g>
			</g>
			<g>
				<g>
					<path fill="none" stroke="#FFFFFF" stroke-miterlimit="10" d="M210.918,57.842c-0.07,0.017,0.016,0.139,0.026,0.208
						c0.856,5.264,8.554,4.026,8.554,4.026S219.117,55.732,210.918,57.842z"/>
				</g>
				<g>
					<line fill="none" stroke="#FFFFFF" stroke-miterlimit="10" x1="221.646" y1="62.125" x2="229.556" y2="62.797"/>
				</g>
			</g>
		</g>
		<g>
			<g>
				<path fill="none" d="M195.272,62.334"/>
			</g>
			<g>
				<g>
					<path fill="none" stroke="#FFFFFF" stroke-miterlimit="10" d="M175.017,62.407c-0.133,0.013-0.061-0.257-0.085-0.386
						c-1.954-9.806,12.379-12.683,12.379-12.683S190.801,60.729,175.017,62.407z"/>
				</g>
			</g>
			<g>
				<g>
					<path fill="none" stroke="#FFFFFF" stroke-miterlimit="10" d="M175.458,64.838c-0.13,0.033,0.033,0.264,0.054,0.392
						c1.603,9.868,16.037,7.544,16.037,7.544S190.829,60.887,175.458,64.838z"/>
				</g>
				<g>
					<line fill="none" stroke="#FFFFFF" stroke-miterlimit="10" x1="193.035" y1="73.695" x2="210.135" y2="76.779"/>
				</g>
			</g>
		</g>
		<g>
			<path fill="none" stroke="#FFFFFF" stroke-miterlimit="10" d="M217.772,55.964c-0.063-0.034,0.051-0.135,0.076-0.198
				c2.035-4.93,9.248-1.964,9.248-1.964S225.275,59.886,217.772,55.964z"/>
		</g>
		<g>
			<g>
				<path fill="none" d="M183.482,64.933"/>
			</g>
			<g>
				<g>
					<path fill="none" stroke="#FFFFFF" stroke-miterlimit="10" d="M159.176,65.02c-0.159,0.016-0.071-0.313-0.101-0.464
						c-2.345-11.765,14.857-15.218,14.857-15.218S178.115,63.004,159.176,65.02z"/>
				</g>
			</g>
			<g>
				<g>
					<path fill="none" stroke="#FFFFFF" stroke-miterlimit="10" d="M159.704,67.936c-0.155,0.041,0.04,0.316,0.066,0.471
						c1.923,11.841,19.245,9.055,19.245,9.055S178.148,63.193,159.704,67.936z"/>
				</g>
				<g>
					<line fill="none" stroke="#FFFFFF" stroke-miterlimit="10" x1="180.797" y1="78.564" x2="202.76" y2="82.738"/>
				</g>
			</g>
		</g>
		<g>
			<g>
				<path fill="none" d="M168.79,68.147"/>
			</g>
			<g>
				<g>
					<path fill="none" stroke="#FFFFFF" stroke-miterlimit="10" d="M139.623,68.254c-0.191,0.02-0.086-0.372-0.121-0.557
						c-2.814-14.119,17.826-18.263,17.826-18.263S162.35,65.834,139.623,68.254z"/>
				</g>
			</g>
			<g>
				<g>
					<path fill="none" stroke="#FFFFFF" stroke-miterlimit="10" d="M140.255,71.753c-0.185,0.048,0.049,0.378,0.081,0.565
						c2.307,14.21,23.091,10.867,23.091,10.867S162.39,66.063,140.255,71.753z"/>
				</g>
				<g>
					<line fill="none" stroke="#FFFFFF" stroke-miterlimit="10" x1="165.568" y1="84.505" x2="192.194" y2="89.564"/>
				</g>
			</g>
		</g>
		<path fill="none" stroke="#FFFFFF" stroke-miterlimit="10" d="M146.52,79.216c0,0-3.859-3.194-4.241-6.022
			c0,0-0.316-0.437,5.226-0.896"/>
		<path fill="none" stroke="#FFFFFF" stroke-miterlimit="10" d="M146.628,65.146c0,0-3.986,1.385-5.833,1.475
			c0,0-0.93-2.61,2.061-6.809"/>
		<path fill="none" stroke="#FFFFFF" stroke-miterlimit="10" d="M163.899,73.231c0,0-0.954-0.972-2.562-4.175
			c0,0,0.823-0.301,3.803-0.545"/>
		<path fill="none" stroke="#FFFFFF" stroke-miterlimit="10" d="M164.66,62.502c0,0-1.438,0.54-4.387,0.885
			c0,0-0.48-1.814,1.528-5.302"/>
		<path fill="none" stroke="#FFFFFF" stroke-miterlimit="10" d="M179.877,69.758c0,0-1.582-0.963-2.83-3.8
			c0,0,1.256-0.603,3.719-0.528"/>
		<path fill="none" stroke="#FFFFFF" stroke-miterlimit="10" d="M180.209,59.905c0,0-1.874,0.856-4.067,0.89
			c0,0-0.047-2.902,1.648-4.849"/>
		<path fill="none" stroke="#FFFFFF" stroke-miterlimit="10" d="M193.673,66.107c0,0-2.074-1.637-2.337-3.004
			c0,0,1-0.371,3.192-0.355"/>
		<path fill="none" stroke="#FFFFFF" stroke-miterlimit="10" d="M193.839,57.74c0,0-2.009,0.787-3.226,0.712
			c0,0,0.15-2.435,1.525-3.782"/>
		<path fill="none" stroke="#FFFFFF" stroke-miterlimit="10" d="M204.751,62.922c0,0-1.656-1.4-1.83-2.272
			c0,0,1.479-0.341,2.603-0.135"/>
		<path fill="none" stroke="#FFFFFF" stroke-miterlimit="10" d="M204.63,56.028c0,0-1.257,0.618-2.429,0.694
			c0,0,0.165-2.071,1.292-2.927"/>
		<path fill="none" stroke="#FFFFFF" stroke-miterlimit="10" d="M213.961,60.287c0,0-1.447-0.699-1.647-1.55
			c0,0,1.126-0.205,1.895-0.083"/>
		<path fill="none" stroke="#FFFFFF" stroke-miterlimit="10" d="M213.363,54.917c0,0-0.811,0.37-1.629,0.329
			c-0.01,0-0.021,0.001-0.032-0.002c0,0,0.29-1.593,0.935-2.002"/>
		<path fill="none" stroke="#FFFFFF" stroke-miterlimit="10" d="M220.868,55.99c0,0-0.909-0.195-1.455-0.55
			c0,0,0.822-0.759,1.371-0.865"/>
		
			<path fill="none" stroke="#FFFFFF" stroke-linecap="round" stroke-linejoin="round" stroke-miterlimit="10" stroke-dasharray="0.5,2" d="
			M147.146,79.51c0,0,2.949,1.663,5.131,1.885"/>
		
			<path fill="none" stroke="#FFFFFF" stroke-linecap="round" stroke-linejoin="round" stroke-miterlimit="10" stroke-dasharray="0.5,2" d="
			M148.275,72.295c0,0,3.479-0.244,5.212,0.58"/>
		
			<path fill="none" stroke="#FFFFFF" stroke-linecap="round" stroke-linejoin="round" stroke-miterlimit="10" stroke-dasharray="0.5,2" d="
			M147.278,65.01c0,0,2.833-1.424,4.042-2.631"/>
		
			<path fill="none" stroke="#FFFFFF" stroke-linecap="round" stroke-linejoin="round" stroke-miterlimit="10" stroke-dasharray="0.5,2" d="
			M143.351,58.831c0,0,1.821-2.022,4.031-3.163"/>
		
			<path fill="none" stroke="#FFFFFF" stroke-linecap="round" stroke-linejoin="round" stroke-miterlimit="10" stroke-dasharray="0.5,2" d="
			M168.718,75.647c0,0-2.979-0.671-4.151-2.066"/>
		
			<path fill="none" stroke="#FFFFFF" stroke-linecap="round" stroke-linejoin="round" stroke-miterlimit="10" stroke-dasharray="0.5,2" d="
			M165.876,68.437c0,0,2.419-0.044,4.314,0.164"/>
		
			<path fill="none" stroke="#FFFFFF" stroke-linecap="round" stroke-linejoin="round" stroke-miterlimit="10" stroke-dasharray="0.5,2" d="
			M165.317,62.316c0,0,2.916-1.026,3.712-2.393"/>
		
			<path fill="none" stroke="#FFFFFF" stroke-linecap="round" stroke-linejoin="round" stroke-miterlimit="10" stroke-dasharray="0.5,2" d="
			M162.284,57.488c0,0,1.709-2.232,3.685-3.122"/>
		
			<path fill="none" stroke="#FFFFFF" stroke-linecap="round" stroke-linejoin="round" stroke-miterlimit="10" stroke-dasharray="0.5,2" d="
			M184.641,71.287c0,0-2.794-0.26-4.25-1.201"/>
		
			<path fill="none" stroke="#FFFFFF" stroke-linecap="round" stroke-linejoin="round" stroke-miterlimit="10" stroke-dasharray="0.5,2" d="
			M181.761,65.653c0,0,2.465,0.117,3.92,0.809"/>
		
			<path fill="none" stroke="#FFFFFF" stroke-linecap="round" stroke-linejoin="round" stroke-miterlimit="10" stroke-dasharray="0.5,2" d="
			M181.026,59.425c0.25,0.041,1.967-1.034,3.034-2.469"/>
		
			<path fill="none" stroke="#FFFFFF" stroke-linecap="round" stroke-linejoin="round" stroke-miterlimit="10" stroke-dasharray="0.5,2" d="
			M178.228,55.631c0,0,2.92-2.167,3.94-2.518"/>
		
			<path fill="none" stroke="#FFFFFF" stroke-linecap="round" stroke-linejoin="round" stroke-miterlimit="10" stroke-dasharray="0.5,2" d="
			M197.136,67.229c0,0-1.563-0.283-2.929-0.793"/>
		
			<path fill="none" stroke="#FFFFFF" stroke-linecap="round" stroke-linejoin="round" stroke-miterlimit="10" stroke-dasharray="0.5,2" d="
			M195.081,62.813c0,0,1.682-0.274,2.669,0.397"/>
		
			<path fill="none" stroke="#FFFFFF" stroke-linecap="round" stroke-linejoin="round" stroke-miterlimit="10" stroke-dasharray="0.5,2" d="
			M194.232,57.499c0,0,2.134-1.072,2.794-1.994"/>
		
			<path fill="none" stroke="#FFFFFF" stroke-linecap="round" stroke-linejoin="round" stroke-miterlimit="10" stroke-dasharray="0.5,2" d="
			M192.625,54.089c0,0,1.166-1.259,2.547-1.841"/>
		
			<path fill="none" stroke="#FFFFFF" stroke-linecap="round" stroke-linejoin="round" stroke-miterlimit="10" stroke-dasharray="0.5,2" d="
			M207.289,63.789c0,0-1.643-0.289-2.162-0.661"/>
		
			<path fill="none" stroke="#FFFFFF" stroke-linecap="round" stroke-linejoin="round" stroke-miterlimit="10" stroke-dasharray="0.5,2" d="
			M206.012,60.472c0,0,1.514,0.195,1.911,0.427"/>
		
			<path fill="none" stroke="#FFFFFF" stroke-linecap="round" stroke-linejoin="round" stroke-miterlimit="10" stroke-dasharray="0.5,2" d="
			M205.008,55.776c0,0,1.472-0.609,1.913-1.404"/>
		
			<path fill="none" stroke="#FFFFFF" stroke-linecap="round" stroke-linejoin="round" stroke-miterlimit="10" stroke-dasharray="0.5,2" d="
			M203.837,53.464c0,0,0.878-0.969,1.823-1.443"/>
		
			<path fill="none" stroke="#FFFFFF" stroke-linecap="round" stroke-linejoin="round" stroke-miterlimit="10" stroke-dasharray="0.5,2" d="
			M216.598,60.943c-0.58,0.004-2.096-0.49-2.088-0.479"/>
		
			<path fill="none" stroke="#FFFFFF" stroke-linecap="round" stroke-linejoin="round" stroke-miterlimit="10" stroke-dasharray="0.5,2" d="
			M215.114,58.771c0,0,1.446,0.429,1.861,0.69"/>
		
			<path fill="none" stroke="#FFFFFF" stroke-linecap="round" stroke-linejoin="round" stroke-miterlimit="10" stroke-dasharray="0.5,2" d="
			M213.651,54.671c0,0,1.202-0.64,1.62-1.224"/>
		
			<path fill="none" stroke="#FFFFFF" stroke-linecap="round" stroke-linejoin="round" stroke-miterlimit="10" stroke-dasharray="0.5,2" d="
			M212.918,52.924c0,0,0.766-0.708,1.758-1.104"/>
		
			<path fill="none" stroke="#FFFFFF" stroke-linecap="round" stroke-linejoin="round" stroke-miterlimit="10" stroke-dasharray="0.5,2" d="
			M221.276,55.997c0,0,1.72,0.213,2.236-0.203"/>
		
			<path fill="none" stroke="#FFFFFF" stroke-linecap="round" stroke-linejoin="round" stroke-miterlimit="10" stroke-dasharray="0.5,2" d="
			M221.241,54.417c0,0,1.494-0.388,2.422-0.254"/>
		<g>
			<line fill="none" stroke="#FFFFFF" stroke-miterlimit="10" x1="201.07" y1="47.124" x2="212.742" y2="39.584"/>
		</g>
		<g>
			<line fill="none" stroke="#FFFFFF" stroke-miterlimit="10" x1="211.542" y1="46.737" x2="220.454" y2="41.519"/>
		</g>
		<g>
			<line fill="none" stroke="#FFFFFF" stroke-miterlimit="10" x1="219.683" y1="47.208" x2="226.715" y2="43.528"/>
		</g>
		<g>
			<line fill="none" stroke="#FFFFFF" stroke-miterlimit="10" x1="188.822" y1="47.61" x2="203.397" y2="38.146"/>
		</g>
		<g>
			<line fill="none" stroke="#FFFFFF" stroke-miterlimit="10" x1="175.655" y1="47.852" x2="194.293" y2="35.507"/>
		</g>
		<g>
			<line fill="none" stroke="#FFFFFF" stroke-miterlimit="10" x1="159.313" y1="48.264" x2="181.907" y2="33.299"/>
		</g>
		
			<path fill="none" stroke="#FFFFFF" stroke-linecap="round" stroke-linejoin="round" stroke-miterlimit="10" stroke-dasharray="0.5,2" d="
			M103.247,40.521c0,0,10.716,3.933,12.959,6.999"/>
		
			<path fill="none" stroke="#FFFFFF" stroke-linecap="round" stroke-linejoin="round" stroke-miterlimit="10" stroke-dasharray="0.5,2" d="
			M82.134,54.985c0,0,23.657-3.928,27.114-5.638"/>
		<line fill="none" stroke="#FFFFFF" stroke-miterlimit="10" x1="157.797" y1="111.191" x2="158.032" y2="112.401"/>
		<line fill="none" stroke="#FFFFFF" stroke-miterlimit="10" x1="156.651" y1="110.662" x2="157.011" y2="112.003"/>
		<line fill="none" stroke="#FFFFFF" stroke-miterlimit="10" x1="135.958" y1="69.115" x2="136.492" y2="70.066"/>
		<line fill="none" stroke="#FFFFFF" stroke-miterlimit="10" x1="134.95" y1="69.061" x2="135.747" y2="70.25"/>
		<line fill="none" stroke="#FFFFFF" stroke-miterlimit="10" x1="133.948" y1="69.104" x2="134.641" y2="70.198"/>
		<line fill="none" stroke="#FFFFFF" stroke-miterlimit="10" x1="155.532" y1="110.196" x2="156.01" y2="111.721"/>
		<path fill="none" stroke="#FFFFFF" stroke-miterlimit="10" d="M95.147,116.612c-0.037,0.08-0.136,0.578-0.136,0.578"/>
		<line fill="none" stroke="#FFFFFF" stroke-miterlimit="10" x1="94.548" y1="115.889" x2="94.422" y2="116.362"/>
		<line fill="none" stroke="#FFFFFF" stroke-miterlimit="10" x1="93.857" y1="115.065" x2="93.621" y2="115.734"/>
		<line fill="none" stroke="#FFFFFF" stroke-miterlimit="10" x1="80.267" y1="55.208" x2="80.576" y2="55.631"/>
		<line fill="none" stroke="#FFFFFF" stroke-miterlimit="10" x1="81.424" y1="54.846" x2="82.135" y2="55.438"/>
		<line fill="none" stroke="#FFFFFF" stroke-miterlimit="10" x1="83.102" y1="54.403" x2="84.002" y2="55.194"/>
		<path fill="none" stroke="#FFFFFF" stroke-miterlimit="10" d="M55.446,71.748c0,0,11.189,42.092,7.081,44.085
			c-4.49,2.178-7.259,1.793-7.259,1.793L55.446,71.748"/>
		<path fill="none" stroke="#FFFFFF" stroke-miterlimit="10" d="M43.788,100.14c-1.424-3.211,7.275,18.552,13.197,18.572
			c6.447,0.023,6.19-0.669,6.363-4.591"/>
		<path fill="none" stroke="#FFFFFF" stroke-miterlimit="10" d="M63.604,113.864c0,0-18.154-9.979-19.815-13.725"/>
		<line fill="none" stroke="#FFFFFF" stroke-miterlimit="10" x1="56.545" y1="84.985" x2="57.854" y2="86.273"/>
		<line fill="none" stroke="#FFFFFF" stroke-miterlimit="10" x1="56.528" y1="86.306" x2="58.281" y2="87.841"/>
		<line fill="none" stroke="#FFFFFF" stroke-miterlimit="10" x1="56.369" y1="87.447" x2="58.634" y2="89.527"/>
		<line fill="none" stroke="#FFFFFF" stroke-miterlimit="10" x1="56.739" y1="108.055" x2="62.053" y2="111.418"/>
		<line fill="none" stroke="#FFFFFF" stroke-miterlimit="10" x1="56.612" y1="106.564" x2="61.979" y2="110.018"/>
		<line fill="none" stroke="#FFFFFF" stroke-miterlimit="10" x1="56.737" y1="105.329" x2="61.834" y2="108.554"/>
		<line fill="none" stroke="#FFFFFF" stroke-miterlimit="10" x1="56.636" y1="104.063" x2="61.553" y2="107.101"/>
		
			<path fill="none" stroke="#FFFFFF" stroke-linecap="round" stroke-linejoin="round" stroke-miterlimit="10" stroke-dasharray="0.5,2" d="
			M49.065,107.011c0,0,6.917,9.082,10.509,10.323"/>
		
			<path fill="none" stroke="#FFFFFF" stroke-linecap="round" stroke-linejoin="round" stroke-miterlimit="10" stroke-dasharray="0.5,2" d="
			M56.669,82.575c0,0,3.216,23.764,2.601,27.571"/>
		<line fill="none" stroke="#FFFFFF" stroke-miterlimit="10" x1="56.333" y1="80.725" x2="56.829" y2="80.894"/>
		<line fill="none" stroke="#FFFFFF" stroke-miterlimit="10" x1="56.327" y1="81.938" x2="57.105" y2="82.442"/>
		<line fill="none" stroke="#FFFFFF" stroke-miterlimit="10" x1="56.398" y1="83.671" x2="57.419" y2="84.297"/>
		<line fill="none" stroke="#FFFFFF" stroke-miterlimit="10" x1="15.856" y1="39.248" x2="16.256" y2="41.272"/>
		<line fill="none" stroke="#FFFFFF" stroke-miterlimit="10" x1="17.293" y1="39.889" x2="18.04" y2="42.732"/>
		<line fill="none" stroke="#FFFFFF" stroke-miterlimit="10" x1="19.22" y1="41.022" x2="19.658" y2="43.233"/>
		<line fill="none" stroke="#FFFFFF" stroke-miterlimit="10" x1="22.198" y1="42.943" x2="22.419" y2="44.761"/>
		<line fill="none" stroke="#FFFFFF" stroke-miterlimit="10" x1="26.016" y1="44.745" x2="26.505" y2="46.734"/>
		<line fill="none" stroke="#FFFFFF" stroke-miterlimit="10" x1="33.905" y1="48.663" x2="34.34" y2="50.331"/>
		<line fill="none" stroke="#FFFFFF" stroke-miterlimit="10" x1="53.559" y1="55.965" x2="54.044" y2="57.412"/>
		<line fill="none" stroke="#FFFFFF" stroke-miterlimit="10" x1="84.327" y1="63.708" x2="85.007" y2="65.489"/>
	</g>
</g>
</svg>
